<?xml version="1.0" standalone="no"?>
<!DOCTYPE svg PUBLIC "-//W3C//DTD SVG 20010904//EN"
 "http://www.w3.org/TR/2001/REC-SVG-20010904/DTD/svg10.dtd">
<svg version="1.0" xmlns="http://www.w3.org/2000/svg"
 width="1372.000000pt" height="1372.000000pt" viewBox="0 0 1372.000000 1372.000000"
 preserveAspectRatio="xMidYMid meet">
<metadata>
Created by potrace 1.14, written by Peter Selinger 2001-2017
</metadata>
<g transform="translate(0.000000,1372.000000) scale(0.100000,-0.100000)"
fill="#000000" stroke="none">
<path d="M3980 13625 c0 -33 -2 -35 -35 -35 l-35 0 0 -75 0 -75 -35 0 -35 0 0
-145 0 -145 35 0 35 0 0 110 0 110 35 0 35 0 0 75 0 75 40 0 c39 0 40 1 40 35
l0 35 220 0 220 0 0 -35 0 -35 145 0 145 0 0 -40 0 -40 185 0 185 0 0 -35 0
-35 150 0 150 0 0 -40 0 -40 185 0 185 0 0 -35 0 -35 185 0 185 0 0 -35 0 -35
145 0 145 0 0 -40 0 -40 -185 0 -185 0 0 40 0 40 -185 0 -185 0 0 35 0 35
-185 0 -185 0 0 35 0 35 -180 0 -180 0 0 40 0 40 -150 0 -150 0 0 35 0 35
-185 0 -185 0 0 40 0 40 -110 0 -110 0 0 -40 c0 -39 -1 -40 -35 -40 l-35 0 0
-75 0 -75 -40 0 -40 0 0 -145 0 -145 -35 0 -35 0 0 -75 0 -75 -35 0 -35 0 0
110 0 110 -40 0 -40 0 0 -145 0 -145 -35 0 -35 0 0 -185 0 -185 -40 0 -40 0 0
-150 0 -150 40 0 c39 0 40 -1 40 -35 l0 -35 -75 0 -75 0 0 -150 0 -150 -35 0
-35 0 0 -185 0 -185 -40 0 -40 0 0 -145 0 -145 40 0 40 0 0 -40 0 -40 -75 0
-75 0 0 -145 0 -145 -35 0 -35 0 0 -185 0 -185 -40 0 -40 0 0 -150 0 -150 40
0 c39 0 40 -1 40 -35 l0 -35 -75 0 -75 0 0 -150 0 -150 -40 0 -40 0 0 -185 0
-185 -35 0 -35 0 0 -180 0 -180 -35 0 -35 0 0 -150 0 -150 35 0 c33 0 35 -2
35 -35 l0 -35 -75 0 -75 0 0 -150 0 -150 -35 0 -35 0 0 -185 0 -185 -40 0 -40
0 0 -145 0 -145 40 0 40 0 0 -40 0 -40 -75 0 -75 0 0 -145 0 -145 -35 0 -35 0
0 -185 0 -185 -40 0 -40 0 0 -150 0 -150 40 0 c39 0 40 -1 40 -35 l0 -35 -75
0 -75 0 0 -150 0 -150 -35 0 -35 0 0 -185 0 -185 -40 0 -40 0 0 -185 0 -185
-35 0 -35 0 0 -185 0 -185 -40 0 -40 0 0 -145 0 -145 -35 0 -35 0 0 -185 0
-185 -35 0 -35 0 0 -150 0 -150 35 0 c33 0 35 -2 35 -35 l0 -35 -75 0 -75 0 0
-150 0 -150 -35 0 -35 0 0 -185 0 -185 -35 0 -35 0 0 -180 0 -180 -40 0 -40 0
0 -150 0 -150 -35 0 -35 0 0 -185 0 -185 -40 0 -40 0 0 -185 0 -185 40 0 40 0
0 -75 0 -75 75 0 75 0 0 -35 0 -35 145 0 145 0 0 -75 0 -75 75 0 75 0 0 -35 0
-35 145 0 145 0 0 -40 0 -40 40 0 40 0 0 40 0 40 -40 0 c-39 0 -40 1 -40 35
l0 35 150 0 150 0 0 -35 0 -35 -75 0 -75 0 0 -40 0 -40 75 0 75 0 0 40 0 40
185 0 185 0 0 -40 0 -40 -40 0 c-39 0 -40 -1 -40 -35 0 -34 1 -35 40 -35 39 0
40 -1 40 -35 0 -33 2 -35 35 -35 l35 0 0 70 0 70 150 0 150 0 0 -35 0 -35 145
0 145 0 0 -35 c0 -33 -2 -35 -35 -35 -34 0 -35 -1 -35 -40 0 -39 1 -40 35 -40
33 0 35 -2 35 -35 0 -34 1 -35 40 -35 l40 0 0 75 0 75 145 0 145 0 0 -40 0
-40 -110 0 -110 0 0 -35 0 -35 110 0 110 0 0 -40 0 -40 75 0 75 0 0 40 0 40
-40 0 c-39 0 -40 1 -40 35 l0 35 150 0 150 0 0 -35 0 -35 -75 0 -75 0 0 -40 0
-40 75 0 75 0 0 40 0 40 145 0 145 0 0 -40 0 -40 -110 0 -110 0 0 -35 0 -35
110 0 110 0 0 -35 c0 -34 1 -35 40 -35 l40 0 0 70 0 70 145 0 145 0 0 -35 0
-35 -70 0 -70 0 0 -35 0 -35 70 0 70 0 0 35 0 35 185 0 185 0 0 -35 0 -35
-145 0 -145 0 0 -40 0 -40 110 0 110 0 0 -35 c0 -33 2 -35 35 -35 l35 0 0 75
0 75 185 0 185 0 0 -40 0 -40 -145 0 -145 0 0 -35 0 -35 145 0 145 0 0 -35 c0
-34 1 -35 40 -35 39 0 40 1 40 35 0 34 -1 35 -40 35 -39 0 -40 1 -40 35 l0 35
150 0 150 0 0 -35 0 -35 -75 0 -75 0 0 -35 0 -35 75 0 75 0 0 35 0 35 185 0
185 0 0 -35 0 -35 -150 0 -150 0 0 -40 0 -40 150 0 150 0 0 40 0 40 180 0 180
0 0 -40 0 -40 -145 0 -145 0 0 -35 0 -35 145 0 145 0 0 -40 0 -40 40 0 40 0 0
40 0 40 -40 0 c-39 0 -40 1 -40 35 l0 35 150 0 150 0 0 -35 0 -35 -75 0 -75 0
0 -40 0 -40 75 0 75 0 0 40 0 40 185 0 185 0 0 -40 0 -40 -110 0 -110 0 0 -35
0 -35 110 0 110 0 0 -35 c0 -33 2 -35 35 -35 l35 0 0 70 0 70 150 0 150 0 0
-35 0 -35 185 0 185 0 0 -35 0 -35 -75 0 -75 0 0 -40 0 -40 75 0 75 0 0 40 0
40 145 0 145 0 0 -40 0 -40 -110 0 -110 0 0 -35 0 -35 110 0 110 0 0 -40 0
-40 75 0 75 0 0 40 c0 39 -1 40 -35 40 -33 0 -35 2 -35 35 l0 35 145 0 145 0
0 -35 0 -35 -75 0 -75 0 0 -40 0 -40 75 0 75 0 0 40 c0 39 1 40 35 40 l35 0 0
-75 0 -75 75 0 75 0 0 35 0 35 75 0 75 0 0 75 0 75 75 0 75 0 0 75 0 75 35 0
c33 0 35 2 35 35 0 33 -2 35 -35 35 -34 0 -35 1 -35 40 0 39 1 40 35 40 33 0
35 2 35 35 l0 35 75 0 75 0 0 40 0 40 -75 0 -75 0 0 70 0 70 75 0 75 0 0 40 0
40 -75 0 -75 0 0 35 c0 33 2 35 35 35 33 0 35 2 35 35 0 34 1 35 40 35 l40 0
0 185 0 185 35 0 c34 0 35 1 35 40 0 39 -1 40 -35 40 l-35 0 0 75 0 75 75 0
75 0 0 35 c0 34 -1 35 -40 35 -39 0 -40 1 -40 35 l0 35 75 0 75 0 0 40 c0 39
-1 40 -35 40 -33 0 -35 2 -35 35 0 34 -1 35 -40 35 -39 0 -40 1 -40 35 0 34 1
35 40 35 l40 0 0 40 c0 39 1 40 35 40 l35 0 0 75 0 75 -35 0 c-33 0 -35 2 -35
35 0 33 2 35 35 35 33 0 35 2 35 35 0 33 2 35 35 35 l35 0 0 75 0 75 -35 0
c-34 0 -35 1 -35 40 0 39 -1 40 -35 40 -33 0 -35 2 -35 35 l0 35 70 0 70 0 0
150 0 150 75 0 75 0 0 35 c0 33 2 35 35 35 33 0 35 2 35 35 0 33 -2 35 -35 35
-33 0 -35 -2 -35 -35 0 -33 -2 -35 -35 -35 l-35 0 0 75 0 75 35 0 c33 0 35 2
35 35 0 33 -2 35 -35 35 l-35 0 0 75 0 75 110 0 110 0 0 35 c0 34 -1 35 -40
35 l-40 0 0 40 c0 39 -1 40 -35 40 -33 0 -35 2 -35 35 0 33 2 35 35 35 l35 0
0 75 0 75 40 0 c39 0 40 1 40 35 0 34 -1 35 -40 35 l-40 0 0 40 0 40 40 0 40
0 0 70 0 70 -40 0 -40 0 0 40 0 40 40 0 40 0 0 70 0 70 75 0 75 0 0 40 0 40
-75 0 -75 0 0 35 c0 33 2 35 35 35 34 0 35 1 35 40 l0 40 40 0 40 0 0 70 0 70
-40 0 -40 0 0 40 0 40 40 0 40 0 0 75 0 75 35 0 c33 0 35 2 35 35 0 33 -2 35
-35 35 l-35 0 0 75 0 75 70 0 70 0 0 35 c0 33 -2 35 -35 35 -34 0 -35 1 -35
40 l0 40 75 0 75 0 0 35 c0 34 -1 35 -40 35 -39 0 -40 1 -40 35 0 33 -2 35
-35 35 -34 0 -35 1 -35 40 0 39 1 40 35 40 33 0 35 2 35 35 l0 35 75 0 75 0 0
35 c0 33 -2 35 -35 35 -34 0 -35 1 -35 40 l0 40 -40 0 c-39 0 -40 1 -40 35 l0
35 75 0 75 0 0 40 c0 39 1 40 35 40 33 0 35 2 35 35 0 33 -2 35 -35 35 -33 0
-35 -2 -35 -35 0 -33 -2 -35 -35 -35 l-35 0 0 70 0 70 35 0 35 0 0 75 0 75
-35 0 c-34 0 -35 1 -35 40 l0 40 70 0 70 0 0 35 c0 33 -2 35 -35 35 l-35 0 0
75 0 75 35 0 c33 0 35 2 35 35 0 34 1 35 40 35 l40 0 0 75 0 75 -40 0 c-39 0
-40 1 -40 35 0 34 1 35 40 35 l40 0 0 185 0 185 35 0 35 0 0 110 0 110 40 0
40 0 0 115 0 115 -40 0 c-39 0 -40 1 -40 35 l0 35 75 0 75 0 0 35 c0 33 -2 35
-35 35 l-35 0 0 110 0 110 35 0 c34 0 35 1 35 40 0 39 1 40 35 40 33 0 35 2
35 35 0 34 1 35 40 35 l40 0 0 40 0 40 -40 0 c-39 0 -40 1 -40 35 0 33 -2 35
-35 35 -33 0 -35 2 -35 35 0 33 2 35 35 35 34 0 35 1 35 40 l0 40 75 0 75 0 0
35 0 35 -75 0 -75 0 0 75 0 75 40 0 c39 0 40 1 40 35 0 33 2 35 35 35 l35 0 0
75 0 75 -110 0 -110 0 0 40 0 40 110 0 110 0 0 35 c0 33 -2 35 -35 35 -33 0
-35 2 -35 35 l0 35 75 0 75 0 0 40 0 40 -40 0 -40 0 0 70 0 70 75 0 75 0 0 40
c0 39 1 40 35 40 33 0 35 2 35 35 0 33 -2 35 -35 35 l-35 0 0 110 0 110 -35 0
c-34 0 -35 1 -35 40 l0 40 70 0 70 0 0 35 c0 33 -2 35 -35 35 l-35 0 0 75 0
75 35 0 35 0 0 75 0 75 40 0 c39 0 40 1 40 35 0 34 -1 35 -40 35 -39 0 -40 1
-40 35 0 34 1 35 40 35 l40 0 0 40 0 40 -40 0 -40 0 0 75 0 75 40 0 40 0 0
-40 c0 -39 1 -40 35 -40 34 0 35 1 35 40 0 39 -1 40 -35 40 l-35 0 0 70 0 70
35 0 c33 0 35 -2 35 -35 0 -33 2 -35 35 -35 33 0 35 2 35 35 0 33 -2 35 -35
35 l-35 0 0 75 0 75 -35 0 c-34 0 -35 1 -35 40 0 39 1 40 35 40 33 0 35 2 35
35 0 33 2 35 35 35 33 0 35 2 35 35 0 33 -2 35 -35 35 l-35 0 0 75 0 75 75 0
75 0 0 40 0 40 -40 0 c-39 0 -40 1 -40 35 0 34 1 35 40 35 39 0 40 1 40 35 l0
35 -75 0 -75 0 0 40 0 40 75 0 75 0 0 70 0 70 110 0 110 0 0 -35 c0 -33 2 -35
35 -35 33 0 35 2 35 35 0 33 -2 35 -35 35 -34 0 -35 1 -35 40 0 39 -1 40 -35
40 -33 0 -35 2 -35 35 l0 35 -75 0 -75 0 0 40 0 40 -40 0 c-39 0 -40 1 -40 35
0 33 -2 35 -35 35 -33 0 -35 2 -35 35 0 33 -2 35 -35 35 -34 0 -35 1 -35 40
l0 40 -40 0 c-39 0 -40 1 -40 35 l0 35 -70 0 -70 0 0 40 0 40 -185 0 -185 0 0
35 0 35 -150 0 -150 0 0 35 0 35 -185 0 -185 0 0 40 0 40 -185 0 -185 0 0 35
0 35 -145 0 -145 0 0 35 0 35 -185 0 -185 0 0 40 0 40 -185 0 -185 0 0 35 0
35 -145 0 -145 0 0 40 0 40 -185 0 -185 0 0 35 0 35 -185 0 -185 0 0 35 0 35
-185 0 -185 0 0 40 0 40 -150 0 -150 0 0 35 0 35 -185 0 -185 0 0 40 0 40
-180 0 -180 0 0 35 0 35 -185 0 -185 0 0 35 0 35 -150 0 -150 0 0 40 0 40
-185 0 -185 0 0 35 0 35 -185 0 -185 0 0 40 0 40 -185 0 -185 0 0 35 0 35
-145 0 -145 0 0 35 0 35 -260 0 -260 0 0 -35z m370 -295 l0 -40 110 0 110 0 0
-35 0 -35 75 0 75 0 0 -75 0 -75 -75 0 -75 0 0 75 0 75 -35 0 c-33 0 -35 -2
-35 -35 0 -33 -2 -35 -35 -35 -34 0 -35 -1 -35 -40 l0 -40 -40 0 -40 0 0 -75
0 -75 -110 0 -110 0 0 -35 0 -35 150 0 150 0 0 35 c0 33 2 35 35 35 33 0 35
-2 35 -35 0 -33 2 -35 35 -35 33 0 35 -2 35 -35 l0 -35 110 0 110 0 0 70 0 70
115 0 115 0 0 -35 0 -35 -75 0 -75 0 0 -75 0 -75 145 0 145 0 0 75 0 75 75 0
75 0 0 35 c0 33 2 35 35 35 33 0 35 -2 35 -35 0 -33 -2 -35 -35 -35 -33 0 -35
-2 -35 -35 0 -33 -2 -35 -35 -35 -34 0 -35 -1 -35 -40 l0 -40 -40 0 c-39 0
-40 -1 -40 -35 l0 -35 185 0 185 0 0 -40 0 -40 150 0 150 0 0 40 c0 39 1 40
35 40 l35 0 0 -75 0 -75 150 0 150 0 0 -35 0 -35 145 0 145 0 0 -40 0 -40 185
0 185 0 0 -35 0 -35 150 0 150 0 0 -35 0 -35 180 0 180 0 0 -40 0 -40 185 0
185 0 0 -35 0 -35 150 0 150 0 0 -40 0 -40 185 0 185 0 0 -35 0 -35 185 0 185
0 0 -35 0 -35 145 0 145 0 0 -40 0 -40 185 0 185 0 0 -35 0 -35 185 0 185 0 0
-40 0 -40 145 0 145 0 0 -35 0 -35 185 0 185 0 0 -35 0 -35 185 0 185 0 0 -40
0 -40 75 0 75 0 0 -35 c0 -33 2 -35 35 -35 l35 0 0 -185 0 -185 -35 0 -35 0 0
-185 0 -185 -35 0 -35 0 0 -150 0 -150 -40 0 -40 0 0 -180 0 -180 -35 0 -35 0
0 -185 0 -185 -40 0 -40 0 0 -185 0 -185 -35 0 -35 0 0 -185 0 -185 -35 0 -35
0 0 -150 0 -150 -40 0 -40 0 0 -185 0 -185 -35 0 -35 0 0 -185 0 -185 -35 0
-35 0 0 -145 0 -145 -40 0 -40 0 0 -185 0 -185 -35 0 -35 0 0 -150 0 -150 -40
0 -40 0 0 -220 0 -220 -35 0 -35 0 0 -110 0 -110 -35 0 -35 0 0 -185 0 -185
-40 0 -40 0 0 -220 0 -220 -35 0 -35 0 0 -150 0 -150 -35 0 -35 0 0 -185 0
-185 -40 0 -40 0 0 -185 0 -185 -35 0 -35 0 0 -145 0 -145 -40 0 -40 0 0 -185
0 -185 -35 0 -35 0 0 -185 0 -185 -35 0 -35 0 0 -150 0 -150 -40 0 -40 0 0
-185 0 -185 -35 0 -35 0 0 -185 0 -185 -35 0 -35 0 0 -185 0 -185 -40 0 -40 0
0 -185 0 -185 -35 0 -35 0 0 -145 0 -145 -40 0 -40 0 0 -185 0 -185 -35 0 -35
0 0 -75 0 -75 -110 0 -110 0 0 40 0 40 -185 0 -185 0 0 35 0 35 -185 0 -185 0
0 35 0 35 -145 0 -145 0 0 40 0 40 -185 0 -185 0 0 35 0 35 -185 0 -185 0 0
35 0 35 -150 0 -150 0 0 40 0 40 -185 0 -185 0 0 35 0 35 -180 0 -180 0 0 40
0 40 -150 0 -150 0 0 35 0 35 -185 0 -185 0 0 35 0 35 -185 0 -185 0 0 40 0
40 -185 0 -185 0 0 35 0 35 -145 0 -145 0 0 40 0 40 -185 0 -185 0 0 35 0 35
-185 0 -185 0 0 35 0 35 -145 0 -145 0 0 40 0 40 -185 0 -185 0 0 35 0 35
-185 0 -185 0 0 35 0 35 -185 0 -185 0 0 40 0 40 -110 0 -110 0 0 35 0 35 -75
0 -75 0 0 75 0 75 35 0 35 0 0 150 0 150 40 0 40 0 0 185 0 185 35 0 35 0 0
180 0 180 35 0 35 0 0 185 0 185 40 0 40 0 0 150 0 150 35 0 35 0 0 185 0 185
40 0 40 0 0 185 0 185 35 0 35 0 0 145 0 145 35 0 35 0 0 185 0 185 40 0 40 0
0 185 0 185 35 0 35 0 0 185 0 185 35 0 35 0 0 150 0 150 40 0 40 0 0 185 0
185 35 0 35 0 0 185 0 185 40 0 40 0 0 145 0 145 35 0 35 0 0 185 0 185 35 0
35 0 0 185 0 185 40 0 40 0 0 185 0 185 35 0 35 0 0 150 0 150 40 0 40 0 0
180 0 180 35 0 35 0 0 185 0 185 35 0 35 0 0 150 0 150 40 0 40 0 0 185 0 185
35 0 35 0 0 185 0 185 35 0 35 0 0 185 0 185 40 0 40 0 0 145 0 145 35 0 35 0
0 185 0 185 40 0 40 0 0 150 0 150 35 0 35 0 0 145 0 145 35 0 35 0 0 185 0
185 40 0 40 0 0 150 0 150 70 0 70 0 0 35 c0 33 -2 35 -35 35 -34 0 -35 1 -35
40 0 39 1 40 35 40 33 0 35 2 35 35 0 34 1 35 40 35 39 0 40 -1 40 -35 0 -33
2 -35 35 -35 l35 0 0 70 0 70 -35 0 c-34 0 -35 1 -35 40 0 39 1 40 35 40 34 0
35 -1 35 -40z m520 -145 c0 -34 -1 -35 -40 -35 -39 0 -40 1 -40 35 0 34 1 35
40 35 39 0 40 -1 40 -35z m220 -75 l0 -40 185 0 185 0 0 -35 c0 -33 2 -35 35
-35 34 0 35 -1 35 -40 0 -39 -1 -40 -35 -40 -34 0 -35 1 -35 40 l0 40 -150 0
-150 0 0 -40 c0 -39 -1 -40 -35 -40 -34 0 -35 1 -35 40 l0 40 -150 0 -150 0 0
35 0 35 75 0 75 0 0 40 0 40 75 0 75 0 0 -40z m1770 -75 l0 -35 185 0 185 0 0
-40 0 -40 145 0 145 0 0 -35 0 -35 185 0 185 0 0 -35 0 -35 185 0 185 0 0 -40
0 -40 185 0 185 0 0 -35 0 -35 150 0 150 0 0 -40 0 -40 185 0 185 0 0 -35 0
-35 180 0 180 0 0 -35 0 -35 150 0 150 0 0 -40 0 -40 185 0 185 0 0 -35 0 -35
185 0 185 0 0 -35 0 -35 145 0 145 0 0 -40 0 -40 185 0 185 0 0 -35 0 -35 110
0 110 0 0 -150 0 -150 -35 0 -35 0 0 110 0 110 -110 0 -110 0 0 40 0 40 -150
0 -150 0 0 35 0 35 -185 0 -185 0 0 40 0 40 -185 0 -185 0 0 35 0 35 -145 0
-145 0 0 35 0 35 -185 0 -185 0 0 40 0 40 -185 0 -185 0 0 35 0 35 -145 0
-145 0 0 35 0 35 -185 0 -185 0 0 40 0 40 -185 0 -185 0 0 35 0 35 -185 0
-185 0 0 40 0 40 -150 0 -150 0 0 35 0 35 -180 0 -180 0 0 35 0 35 -185 0
-185 0 0 40 0 40 -150 0 -150 0 0 35 0 35 185 0 185 0 0 -35z m-1110 -110 l0
-75 40 0 40 0 0 -75 0 -75 -40 0 -40 0 0 75 0 75 -35 0 -35 0 0 75 0 75 35 0
35 0 0 -75z m370 35 l0 -40 -70 0 -70 0 0 -70 0 -70 -40 0 -40 0 0 70 0 70 40
0 40 0 0 40 0 40 70 0 70 0 0 -40z m0 -145 c0 -33 -2 -35 -35 -35 -33 0 -35 2
-35 35 0 33 2 35 35 35 33 0 35 -2 35 -35z m-660 -75 l0 -40 -40 0 -40 0 0 40
0 40 40 0 40 0 0 -40z m-1620 -150 l0 -110 -40 0 -40 0 0 110 0 110 40 0 40 0
0 -110z m2210 75 c0 -33 -2 -35 -35 -35 -33 0 -35 2 -35 35 0 33 2 35 35 35
33 0 35 -2 35 -35z m-2290 -445 l0 -110 -35 0 -35 0 0 110 0 110 35 0 35 0 0
-110z m-70 -330 l0 -70 -40 0 -40 0 0 70 0 70 40 0 40 0 0 -70z m-80 -295 l0
-145 -35 0 -35 0 0 145 0 145 35 0 35 0 0 -145z m8190 70 l0 -75 -35 0 -35 0
0 75 0 75 35 0 35 0 0 -75z m-290 -35 c0 -39 -1 -40 -35 -40 -34 0 -35 1 -35
40 0 39 1 40 35 40 34 0 35 -1 35 -40z m-70 -295 l0 -185 -40 0 -40 0 0 -185
0 -185 -35 0 -35 0 0 -145 0 -145 -40 0 -40 0 0 -185 0 -185 -35 0 -35 0 0
-185 0 -185 -35 0 -35 0 0 -150 0 -150 -40 0 -40 0 0 -185 0 -185 -35 0 -35 0
0 -145 0 -145 -40 0 -40 0 0 145 0 145 40 0 40 0 0 185 0 185 35 0 35 0 0 150
0 150 40 0 40 0 0 185 0 185 35 0 35 0 0 185 0 185 35 0 35 0 0 145 0 145 40
0 40 0 0 185 0 185 35 0 35 0 0 185 0 185 40 0 40 0 0 -185z m-7900 -145 l0
-110 -35 0 -35 0 0 110 0 110 35 0 35 0 0 -110z m8120 -185 l0 -75 -40 0 -40
0 0 75 0 75 40 0 40 0 0 -75z m-8190 -150 l0 -75 -40 0 -40 0 0 75 0 75 40 0
40 0 0 -75z m-80 -185 c0 -39 -1 -40 -35 -40 -34 0 -35 1 -35 40 0 39 1 40 35
40 34 0 35 -1 35 -40z m8190 0 c0 -39 -1 -40 -35 -40 -34 0 -35 1 -35 40 0 39
1 40 35 40 34 0 35 -1 35 -40z m-8190 -185 l0 -75 -35 0 -35 0 0 75 0 75 35 0
35 0 0 -75z m-70 -255 l0 -110 -35 0 -35 0 0 110 0 110 35 0 35 0 0 -110z
m8190 35 l0 -75 -35 0 -35 0 0 75 0 75 35 0 35 0 0 -75z m-8260 -440 l0 -75
-40 0 -40 0 0 75 0 75 40 0 40 0 0 -75z m-80 -190 c0 -33 -2 -35 -35 -35 -33
0 -35 2 -35 35 0 33 2 35 35 35 33 0 35 -2 35 -35z m0 -145 c0 -39 -1 -40 -35
-40 -34 0 -35 1 -35 40 0 39 1 40 35 40 34 0 35 -1 35 -40z m8340 -75 c0 -33
-2 -35 -35 -35 -33 0 -35 2 -35 35 0 33 2 35 35 35 33 0 35 -2 35 -35z m-150
-75 c0 -39 -1 -40 -35 -40 -34 0 -35 1 -35 40 0 39 1 40 35 40 34 0 35 -1 35
-40z m-8260 -75 c0 -34 -1 -35 -40 -35 -39 0 -40 1 -40 35 0 34 1 35 40 35 39
0 40 -1 40 -35z m8110 -145 c0 -39 -1 -40 -35 -40 -34 0 -35 1 -35 40 0 39 1
40 35 40 34 0 35 -1 35 -40z m-8190 -335 l0 -75 -35 0 -35 0 0 75 0 75 35 0
35 0 0 -75z m8190 -35 c0 -39 -1 -40 -35 -40 -34 0 -35 1 -35 40 0 39 1 40 35
40 34 0 35 -1 35 -40z m-370 -185 l0 -145 -35 0 -35 0 0 145 0 145 35 0 35 0
0 -145z m300 -35 c0 -39 -1 -40 -35 -40 -34 0 -35 1 -35 40 0 39 1 40 35 40
34 0 35 -1 35 -40z m-8190 -115 l0 -75 -35 0 -35 0 0 75 0 75 35 0 35 0 0 -75z
m7820 -220 l0 -145 -35 0 -35 0 0 145 0 145 35 0 35 0 0 -145z m-7890 40 c0
-34 -1 -35 -40 -35 -39 0 -40 1 -40 35 0 34 1 35 40 35 39 0 40 -1 40 -35z
m8190 -75 l0 -40 -40 0 -40 0 0 40 0 40 40 0 40 0 0 -40z m-8190 -75 c0 -34
-1 -35 -40 -35 -39 0 -40 1 -40 35 0 34 1 35 40 35 39 0 40 -1 40 -35z m7820
-260 l0 -145 -40 0 -40 0 0 -185 0 -185 -35 0 -35 0 0 -150 0 -150 -35 0 -35
0 0 -185 0 -185 -40 0 -40 0 0 -180 0 -180 -35 0 -35 0 0 -150 0 -150 -40 0
-40 0 0 -185 0 -185 -35 0 -35 0 0 -185 0 -185 -35 0 -35 0 0 -145 0 -145 -40
0 -40 0 0 145 0 145 40 0 40 0 0 185 0 185 35 0 35 0 0 185 0 185 35 0 35 0 0
150 0 150 40 0 40 0 0 180 0 180 35 0 35 0 0 185 0 185 40 0 40 0 0 150 0 150
35 0 35 0 0 185 0 185 35 0 35 0 0 145 0 145 40 0 40 0 0 -145z m-7900 -35 l0
-110 -35 0 -35 0 0 110 0 110 35 0 35 0 0 -110z m8190 75 c0 -33 -2 -35 -35
-35 -33 0 -35 2 -35 35 0 33 2 35 35 35 33 0 35 -2 35 -35z m-8260 -480 l0
-75 -40 0 -40 0 0 75 0 75 40 0 40 0 0 -75z m8190 35 l0 -40 -40 0 -40 0 0 40
0 40 40 0 40 0 0 -40z m-8270 -220 c0 -39 -1 -40 -35 -40 -34 0 -35 1 -35 40
0 39 1 40 35 40 34 0 35 -1 35 -40z m8190 0 c0 -39 -1 -40 -35 -40 -34 0 -35
1 -35 40 0 39 1 40 35 40 34 0 35 -1 35 -40z m-8190 -150 c0 -39 -1 -40 -35
-40 -34 0 -35 1 -35 40 0 39 1 40 35 40 34 0 35 -1 35 -40z m-70 -295 l0 -115
-35 0 -35 0 0 115 0 115 35 0 35 0 0 -115z m8190 75 c0 -39 -1 -40 -35 -40
-34 0 -35 1 -35 40 0 39 1 40 35 40 34 0 35 -1 35 -40z m-8260 -480 l0 -70
-40 0 -40 0 0 70 0 70 40 0 40 0 0 -70z m-80 -185 c0 -33 -2 -35 -35 -35 -33
0 -35 2 -35 35 0 33 2 35 35 35 33 0 35 -2 35 -35z m0 -150 c0 -33 -2 -35 -35
-35 -33 0 -35 2 -35 35 0 33 2 35 35 35 33 0 35 -2 35 -35z m8190 -145 c0 -39
-1 -40 -35 -40 -34 0 -35 1 -35 40 0 39 1 40 35 40 34 0 35 -1 35 -40z m-8260
-150 l0 -110 -35 0 -35 0 0 110 0 110 35 0 35 0 0 -110z m8190 0 c0 -39 -1
-40 -35 -40 -34 0 -35 1 -35 40 0 39 1 40 35 40 34 0 35 -1 35 -40z m-8260
-405 l0 -75 -40 0 -40 0 0 75 0 75 40 0 40 0 0 -75z m8110 -220 l0 -75 -35 0
-35 0 0 75 0 75 35 0 35 0 0 -75z m-8190 -110 c0 -33 -2 -35 -35 -35 -33 0
-35 2 -35 35 0 33 2 35 35 35 33 0 35 -2 35 -35z m7820 -260 l0 -145 -35 0
-35 0 0 145 0 145 35 0 35 0 0 -145z m-7890 35 l0 -40 -40 0 -40 0 0 40 0 40
40 0 40 0 0 -40z m8190 -75 c0 -33 2 -35 35 -35 33 0 35 -2 35 -35 l0 -35 -75
0 -75 0 0 70 0 70 40 0 c39 0 40 -1 40 -35z m-8190 -70 c0 -34 -1 -35 -40 -35
-39 0 -40 1 -40 35 0 34 1 35 40 35 39 0 40 -1 40 -35z m7820 -260 l0 -145
-35 0 -35 0 0 -185 0 -185 -40 0 -40 0 0 -150 0 -150 -35 0 -35 0 0 150 0 150
35 0 35 0 0 185 0 185 40 0 40 0 0 145 0 145 35 0 35 0 0 -145z m-7900 0 l0
-75 -35 0 -35 0 0 75 0 75 35 0 35 0 0 -75z m8190 35 c0 -39 -1 -40 -35 -40
-34 0 -35 1 -35 40 0 39 1 40 35 40 34 0 35 -1 35 -40z m-70 -365 c0 -33 -2
-35 -35 -35 -33 0 -35 2 -35 35 0 33 2 35 35 35 33 0 35 -2 35 -35z m-8190
-75 c0 -39 -1 -40 -35 -40 -34 0 -35 1 -35 40 0 39 1 40 35 40 34 0 35 -1 35
-40z m-70 -225 c0 -34 -1 -35 -40 -35 -39 0 -40 1 -40 35 0 34 1 35 40 35 39
0 40 -1 40 -35z m0 -145 l0 -40 -40 0 -40 0 0 40 0 40 40 0 40 0 0 -40z m7820
-260 l0 -150 -40 0 -40 0 0 -185 0 -185 -35 0 -35 0 0 -145 0 -145 -35 0 -35
0 0 145 0 145 35 0 35 0 0 185 0 185 35 0 35 0 0 150 0 150 40 0 40 0 0 -150z
m-7900 0 l0 -70 -35 0 -35 0 0 70 0 70 35 0 35 0 0 -70z m8190 -145 l0 -145
-35 0 -35 0 0 145 0 145 35 0 35 0 0 -145z m-8260 -260 c0 -33 -2 -35 -35 -35
-33 0 -35 2 -35 35 0 33 2 35 35 35 33 0 35 -2 35 -35z m8190 0 l0 -35 -75 0
-75 0 0 35 0 35 75 0 75 0 0 -35z m-8260 -220 c0 -34 -1 -35 -40 -35 -39 0
-40 1 -40 35 0 34 1 35 40 35 39 0 40 -1 40 -35z m0 -150 c0 -34 -1 -35 -40
-35 -39 0 -40 1 -40 35 0 34 1 35 40 35 39 0 40 -1 40 -35z m8190 -75 l0 -40
-40 0 -40 0 0 40 0 40 40 0 40 0 0 -40z m-370 -185 l0 -145 -40 0 -40 0 0
-185 0 -185 -35 0 -35 0 0 -150 0 -150 -35 0 -35 0 0 150 0 150 35 0 35 0 0
185 0 185 35 0 35 0 0 145 0 145 40 0 40 0 0 -145z m-7900 40 c0 -34 1 -35 40
-35 l40 0 0 -40 0 -40 -40 0 -40 0 0 -75 0 -75 185 0 185 0 0 -35 0 -35 185 0
185 0 0 -35 0 -35 185 0 185 0 0 -40 0 -40 145 0 145 0 0 -35 0 -35 185 0 185
0 0 -35 0 -35 185 0 185 0 0 -40 0 -40 185 0 185 0 0 -35 0 -35 150 0 150 0 0
-40 0 -40 180 0 180 0 0 -35 0 -35 150 0 150 0 0 -35 0 -35 185 0 185 0 0 -40
0 -40 185 0 185 0 0 -35 0 -35 185 0 185 0 0 -40 0 -40 145 0 145 0 0 -35 0
-35 185 0 185 0 0 -35 0 -35 185 0 185 0 0 -40 0 -40 145 0 145 0 0 -35 0 -35
185 0 185 0 0 -35 0 -35 185 0 185 0 0 -40 0 -40 185 0 185 0 0 -35 0 -35 150
0 150 0 0 -40 0 -40 70 0 70 0 0 115 0 115 40 0 40 0 0 145 0 145 35 0 35 0 0
-145 0 -145 -35 0 -35 0 0 -150 0 -150 -150 0 -150 0 0 35 0 35 -185 0 -185 0
0 40 0 40 -145 0 -145 0 0 35 0 35 -185 0 -185 0 0 40 0 40 -185 0 -185 0 0
35 0 35 -145 0 -145 0 0 35 0 35 -185 0 -185 0 0 40 0 40 -185 0 -185 0 0 35
0 35 -185 0 -185 0 0 35 0 35 -150 0 -150 0 0 40 0 40 -185 0 -185 0 0 35 0
35 -180 0 -180 0 0 40 0 40 -185 0 -185 0 0 35 0 35 -150 0 -150 0 0 35 0 35
-185 0 -185 0 0 40 0 40 -185 0 -185 0 0 35 0 35 -145 0 -145 0 0 40 0 40
-185 0 -185 0 0 35 0 35 -185 0 -185 0 0 35 0 35 -145 0 -145 0 0 40 0 40
-185 0 -185 0 0 35 0 35 -185 0 -185 0 0 110 0 110 35 0 c34 0 35 1 35 40 0
39 -1 40 -35 40 -33 0 -35 2 -35 35 0 33 2 35 35 35 33 0 35 -2 35 -35z m8190
-75 c0 -39 -1 -40 -35 -40 -34 0 -35 1 -35 40 0 39 1 40 35 40 34 0 35 -1 35
-40z m-70 -370 l0 -40 -40 0 -40 0 0 40 0 40 40 0 40 0 0 -40z m-7380 -220 l0
-40 -110 0 -110 0 0 40 0 40 110 0 110 0 0 -40z m7300 -35 l0 -75 -35 0 -35 0
0 75 0 75 35 0 35 0 0 -75z m-360 -375 l0 -150 -40 0 -40 0 0 150 0 150 40 0
40 0 0 -150z m290 -35 c0 -33 2 -35 35 -35 34 0 35 -1 35 -40 l0 -40 -70 0
-70 0 0 75 0 75 35 0 c33 0 35 -2 35 -35z m-150 -700 l0 -75 -35 0 -35 0 0 75
0 75 35 0 35 0 0 -75z m-220 -260 c0 -33 -2 -35 -35 -35 -33 0 -35 2 -35 35 0
33 2 35 35 35 33 0 35 -2 35 -35z"/>
<path d="M4200 13110 l0 -40 40 0 40 0 0 40 0 40 -40 0 -40 0 0 -40z"/>
<path d="M4130 12665 c0 -33 -2 -35 -35 -35 l-35 0 0 -185 0 -185 -40 0 -40 0
0 -150 0 -150 -35 0 -35 0 0 -185 0 -185 -35 0 -35 0 0 -145 0 -145 -40 0 -40
0 0 -185 0 -185 -35 0 -35 0 0 -150 0 -150 -40 0 -40 0 0 -185 0 -185 -35 0
-35 0 0 -180 0 -180 -35 0 -35 0 0 -150 0 -150 -40 0 -40 0 0 -185 0 -185 -35
0 -35 0 0 -185 0 -185 -35 0 -35 0 0 -145 0 -145 -40 0 -40 0 0 -225 0 -225
-35 0 -35 0 0 -145 0 -145 -40 0 -40 0 0 -185 0 -185 -35 0 -35 0 0 -185 0
-185 -35 0 -35 0 0 -150 0 -150 -40 0 -40 0 0 -185 0 -185 -35 0 -35 0 0 -145
0 -145 -40 0 -40 0 0 -185 0 -185 -35 0 -35 0 0 -185 0 -185 -35 0 -35 0 0
-150 0 -150 -40 0 -40 0 0 -185 0 -185 -35 0 -35 0 0 -145 0 -145 -35 0 -35 0
0 -220 0 -220 -40 0 -40 0 0 -185 0 -185 -35 0 -35 0 0 -150 0 -150 -40 0 -40
0 0 -185 0 -185 -35 0 -35 0 0 -145 0 -145 -35 0 -35 0 0 -225 0 -225 185 0
185 0 0 -35 0 -35 145 0 145 0 0 -40 0 -40 185 0 185 0 0 -35 0 -35 185 0 185
0 0 -35 0 -35 145 0 145 0 0 -40 0 -40 185 0 185 0 0 -35 0 -35 185 0 185 0 0
-35 0 -35 150 0 150 0 0 -40 0 -40 185 0 185 0 0 -35 0 -35 180 0 180 0 0 -40
0 -40 185 0 185 0 0 -35 0 -35 150 0 150 0 0 -35 0 -35 185 0 185 0 0 -40 0
-40 185 0 185 0 0 -35 0 -35 145 0 145 0 0 -40 0 -40 185 0 185 0 0 -35 0 -35
185 0 185 0 0 -35 0 -35 185 0 185 0 0 -40 0 -40 145 0 145 0 0 -35 0 -35 150
0 150 0 0 -35 c0 -33 2 -35 35 -35 33 0 35 2 35 35 0 34 1 35 40 35 39 0 40 1
40 35 0 33 2 35 35 35 l35 0 0 185 0 185 35 0 35 0 0 185 0 185 40 0 40 0 0
150 0 150 35 0 35 0 0 185 0 185 40 0 40 0 0 185 0 185 35 0 35 0 0 145 0 145
35 0 35 0 0 185 0 185 40 0 40 0 0 185 0 185 35 0 35 0 0 185 0 185 35 0 35 0
0 145 0 145 40 0 40 0 0 185 0 185 35 0 35 0 0 185 0 185 40 0 40 0 0 185 0
185 35 0 35 0 0 150 0 150 35 0 35 0 0 185 0 185 40 0 40 0 0 145 0 145 35 0
35 0 0 150 0 150 -35 0 -35 0 0 -75 0 -75 -40 0 -40 0 0 -110 0 -110 -35 0
-35 0 0 -75 0 -75 35 0 c33 0 35 -2 35 -35 0 -33 -2 -35 -35 -35 l-35 0 0
-110 0 -110 -35 0 -35 0 0 -150 0 -150 -40 0 -40 0 0 -185 0 -185 -35 0 -35 0
0 -145 0 -145 -40 0 -40 0 0 -115 0 -115 -220 0 -220 0 0 -185 0 -185 -35 0
-35 0 0 -145 0 -145 -40 0 -40 0 0 -185 0 -185 -35 0 -35 0 0 -185 0 -185 -35
0 -35 0 0 -145 0 -145 -40 0 -40 0 0 110 0 110 -35 0 -35 0 0 -110 0 -110 35
0 35 0 0 -185 0 -185 -35 0 -35 0 0 110 0 110 -35 0 -35 0 0 -110 0 -110 35 0
35 0 0 -185 0 -185 -35 0 -35 0 0 -185 0 -185 -40 0 -40 0 0 145 0 145 -35 0
-35 0 0 -110 0 -110 -40 0 -40 0 0 -75 0 -75 -110 0 -110 0 0 40 0 40 75 0 75
0 0 35 0 35 -75 0 -75 0 0 150 c0 127 -2 150 -15 150 -8 0 -15 7 -15 15 0 10
11 15 35 15 28 0 35 4 35 20 0 13 7 20 20 20 19 0 20 7 20 150 0 143 -1 150
-20 150 -11 0 -20 7 -20 15 0 8 9 15 20 15 11 0 20 -7 20 -15 0 -10 11 -15 35
-15 l35 0 0 185 c0 178 -1 185 -20 185 -11 0 -20 7 -20 15 0 8 9 15 20 15 11
0 20 -7 20 -15 0 -10 11 -15 35 -15 l35 0 0 145 c0 122 -2 145 -15 145 -12 0
-15 13 -15 55 0 42 3 55 15 55 8 0 15 -9 15 -20 0 -17 7 -20 40 -20 l40 0 0
150 0 150 35 0 35 0 0 185 c0 178 -1 185 -20 185 -13 0 -20 7 -20 20 0 17 7
20 40 20 29 0 40 4 40 15 0 8 9 15 20 15 19 0 20 7 20 110 0 103 -1 110 -20
110 -13 0 -20 7 -20 20 0 16 7 20 35 20 28 0 35 4 35 20 0 13 7 20 20 20 19 0
20 7 20 145 0 138 -1 145 -20 145 -13 0 -20 7 -20 20 0 17 7 20 40 20 33 0 40
3 40 20 0 11 7 20 15 20 12 0 15 19 15 110 0 91 -3 110 -15 110 -12 0 -15 13
-15 55 0 42 3 55 15 55 8 0 15 -9 15 -20 0 -17 7 -20 40 -20 l40 0 0 150 c0
143 -1 150 -20 150 -18 0 -20 7 -20 55 0 48 2 55 20 55 13 0 20 -7 20 -20 0
-16 7 -20 35 -20 l35 0 0 150 c0 143 -1 150 -20 150 -13 0 -20 7 -20 20 0 17
7 20 40 20 29 0 40 4 40 15 0 8 7 15 15 15 13 0 15 23 15 150 0 127 -2 150
-15 150 -8 0 -15 7 -15 15 0 10 11 15 35 15 28 0 35 4 35 20 0 13 7 20 20 20
19 0 20 7 20 150 0 143 -1 150 -20 150 -11 0 -20 7 -20 15 0 8 9 15 20 15 11
0 20 -7 20 -15 0 -10 11 -15 35 -15 l35 0 0 145 c0 138 -1 145 -20 145 -18 0
-20 7 -20 55 0 48 2 55 20 55 11 0 20 -7 20 -15 0 -11 11 -15 40 -15 l40 0 0
145 0 145 35 0 35 0 0 185 0 185 35 0 35 0 0 150 c0 127 -2 150 -15 150 -12 0
-15 13 -15 55 0 42 3 55 15 55 8 0 15 -9 15 -20 0 -17 7 -20 40 -20 l40 0 0
150 c0 143 -1 150 -20 150 -18 0 -20 7 -20 55 0 48 2 55 20 55 13 0 20 -7 20
-20 0 -16 7 -20 35 -20 l35 0 0 150 c0 143 -1 150 -20 150 -11 0 -20 7 -20 15
0 11 11 15 40 15 33 0 40 3 40 20 0 11 7 20 15 20 12 0 15 19 15 110 0 91 -3
110 -15 110 -8 0 -15 9 -15 20 0 16 7 20 35 20 28 0 35 4 35 20 0 19 7 20 130
20 l130 0 0 -40 c0 -39 1 -40 35 -40 34 0 35 1 35 40 l0 40 40 0 40 0 0 145 0
145 -40 0 -40 0 0 -110 0 -110 -145 0 -145 0 0 35 c0 28 -4 35 -20 35 -17 0
-20 7 -20 40 0 33 3 40 20 40 18 0 20 7 20 70 l0 70 -40 0 c-39 0 -40 -1 -40
-35 0 -33 -2 -35 -35 -35 -28 0 -35 -4 -35 -20 0 -19 -7 -20 -165 -20 l-165 0
0 40 0 40 -110 0 c-91 0 -110 3 -110 15 0 12 17 15 90 15 l90 0 0 40 0 40
-145 0 -145 0 0 35 0 35 -185 0 c-158 0 -185 -2 -185 -15 0 -12 -17 -15 -95
-15 -78 0 -95 3 -95 15 0 12 17 15 95 15 l95 0 0 40 0 40 -185 0 -185 0 0 35
0 35 -150 0 -150 0 0 35 0 35 -185 0 c-158 0 -185 -2 -185 -15 0 -12 -17 -15
-90 -15 -73 0 -90 3 -90 15 0 12 17 15 90 15 l90 0 0 40 0 40 -180 0 -180 0 0
35 0 35 -150 0 -150 0 0 40 0 40 -185 0 -185 0 0 35 0 35 -110 0 -110 0 0 35
c0 33 -2 35 -35 35 l-35 0 0 75 0 75 -40 0 -40 0 0 110 0 110 40 0 c39 0 40
-1 40 -35 l0 -35 220 0 220 0 0 -40 0 -40 185 0 185 0 0 -35 0 -35 145 0 145
0 0 -35 0 -35 185 0 185 0 0 -40 0 -40 185 0 185 0 0 -35 0 -35 150 0 150 0 0
-35 0 -35 185 0 185 0 0 -40 0 -40 180 0 180 0 0 -35 0 -35 150 0 150 0 0 35
0 35 -110 0 -110 0 0 40 0 40 -185 0 -185 0 0 35 0 35 -185 0 -185 0 0 35 0
35 -150 0 -150 0 0 40 0 40 -180 0 -180 0 0 35 0 35 -185 0 -185 0 0 35 0 35
-185 0 -185 0 0 40 0 40 -150 0 -150 0 0 35 0 35 -185 0 -185 0 0 40 0 40
-180 0 -180 0 0 35 0 35 -75 0 -75 0 0 -110 0 -110 -40 0 -40 0 0 -150 0 -150
40 0 c29 0 40 -4 40 -15 0 -12 -15 -15 -75 -15 -60 0 -75 3 -75 15 0 10 -11
15 -35 15 -24 0 -35 -5 -35 -15 0 -12 -13 -15 -55 -15 -42 0 -55 3 -55 15 0
12 13 15 55 15 l55 0 0 40 0 40 -115 0 c-108 0 -115 -1 -115 -20 0 -19 -7 -20
-125 -20 -118 0 -125 1 -125 20 0 11 7 20 15 20 10 0 15 11 15 35 l0 35 -70 0
c-63 0 -70 -2 -70 -20 0 -19 -7 -20 -95 -20 -88 0 -95 1 -95 20 0 13 7 20 20
20 16 0 20 7 20 35 l0 35 -110 0 c-91 0 -110 -3 -110 -15 0 -12 -17 -15 -95
-15 l-95 0 0 35 0 35 -55 0 c-48 0 -55 2 -55 20 0 16 -7 20 -35 20 -28 0 -35
-4 -35 -20 0 -13 -7 -20 -20 -20 -13 0 -20 7 -20 20 0 18 -7 20 -75 20 -68 0
-75 2 -75 20 0 11 -7 20 -15 20 -8 0 -15 7 -15 15 0 11 -11 15 -40 15 -29 0
-40 -4 -40 -15 0 -12 -17 -15 -90 -15 l-90 0 0 -115 c0 -108 -1 -115 -20 -115
-19 0 -20 7 -20 170 l0 170 40 0 40 0 0 -40 c0 -39 1 -40 35 -40 34 0 35 1 35
40 0 39 -1 40 -35 40 l-35 0 0 185 0 185 35 0 35 0 0 185 0 185 35 0 35 0 0
180 0 180 40 0 40 0 0 185 0 185 35 0 35 0 0 115 0 115 35 0 35 0 0 -75 0 -75
40 0 c39 0 40 1 40 35 0 33 2 35 35 35 33 0 35 -2 35 -35 l0 -35 150 0 150 0
0 -40 0 -40 145 0 145 0 0 -35 0 -35 185 0 185 0 0 -35 0 -35 150 0 150 0 0
-40 0 -40 185 0 185 0 0 -35 0 -35 145 0 145 0 0 -40 0 -40 185 0 185 0 0 -35
0 -35 185 0 185 0 0 -35 0 -35 185 0 185 0 0 -40 0 -40 145 0 145 0 0 -35 0
-35 185 0 185 0 0 -35 0 -35 185 0 185 0 0 -40 0 -40 150 0 150 0 0 -35 0 -35
180 0 180 0 0 -40 0 -40 185 0 185 0 0 -35 0 -35 185 0 185 0 0 -110 0 -110
-35 0 -35 0 0 -150 0 -150 -40 0 c-39 0 -40 -1 -40 -35 0 -34 1 -35 40 -35
l40 0 0 -40 c0 -39 1 -40 35 -40 33 0 35 -2 35 -35 l0 -35 150 0 150 0 0 -35
c0 -33 2 -35 35 -35 33 0 35 2 35 35 0 33 -2 35 -35 35 -33 0 -35 2 -35 35 l0
35 -150 0 -150 0 0 225 0 225 40 0 c39 0 40 1 40 35 0 33 2 35 35 35 l35 0 0
-75 0 -75 35 0 c33 0 35 -2 35 -35 0 -34 1 -35 40 -35 l40 0 0 -75 0 -75 35 0
c33 0 35 -2 35 -35 0 -33 2 -35 35 -35 l35 0 0 -185 0 -185 -35 0 -35 0 0
-185 0 -185 35 0 35 0 0 -185 0 -185 -35 0 -35 0 0 -185 0 -185 -35 0 -35 0 0
-145 0 -145 -40 0 -40 0 0 -185 0 -185 -35 0 -35 0 0 -150 0 -150 -35 0 -35 0
0 -185 0 -185 -40 0 -40 0 0 -185 0 -185 -35 0 -35 0 0 -145 0 -145 -40 0 -40
0 0 -185 0 -185 -35 0 -35 0 0 -185 0 -185 -35 0 -35 0 0 -185 0 -185 -40 0
-40 0 0 -75 0 -75 75 0 75 0 0 220 0 220 35 0 35 0 0 -185 0 -185 75 0 75 0 0
185 0 185 40 0 40 0 0 75 0 75 -75 0 -75 0 0 -75 0 -75 -40 0 -40 0 0 150 0
150 40 0 40 0 0 185 0 185 35 0 35 0 0 -110 0 -110 40 0 40 0 0 -40 c0 -39 1
-40 35 -40 l35 0 0 110 0 110 -35 0 c-34 0 -35 1 -35 40 l0 40 70 0 70 0 0 75
0 75 -70 0 -70 0 0 -75 0 -75 -40 0 -40 0 0 110 0 110 110 0 110 0 0 35 0 35
-70 0 -70 0 0 225 0 225 70 0 70 0 0 -40 c0 -39 -1 -40 -35 -40 l-35 0 0 -145
0 -145 75 0 75 0 0 185 0 185 35 0 c33 0 35 2 35 35 l0 35 -110 0 -110 0 0 40
0 40 110 0 110 0 0 110 0 110 35 0 35 0 0 110 0 110 40 0 40 0 0 75 0 75 35 0
35 0 0 -115 0 -115 -35 0 -35 0 0 -145 0 -145 -40 0 -40 0 0 -220 0 -220 -35
0 -35 0 0 -115 0 -115 -35 0 -35 0 0 -110 0 -110 70 0 70 0 0 185 0 185 40 0
40 0 0 185 0 185 35 0 35 0 0 150 0 150 40 0 40 0 0 220 0 220 35 0 35 0 0
150 0 150 35 0 35 0 0 185 0 185 40 0 40 0 0 145 0 145 35 0 35 0 0 185 0 185
35 0 35 0 0 150 0 150 40 0 40 0 0 180 0 180 35 0 35 0 0 185 0 185 40 0 40 0
0 150 0 150 35 0 35 0 0 185 0 185 -150 0 -150 0 0 35 0 35 -180 0 -180 0 0
40 0 40 -150 0 -150 0 0 35 0 35 -185 0 -185 0 0 35 0 35 -220 0 -220 0 0 40
0 40 -185 0 -185 0 0 35 0 35 -145 0 -145 0 0 40 0 40 -185 0 -185 0 0 35 0
35 -150 0 -150 0 0 35 0 35 -185 0 -185 0 0 40 0 40 -185 0 -185 0 0 35 0 35
-145 0 -145 0 0 40 0 40 -185 0 -185 0 0 35 0 35 -185 0 -185 0 0 35 0 35
-185 0 -185 0 0 40 0 40 -185 0 -185 0 0 35 0 35 -145 0 -145 0 0 35 0 35
-185 0 -185 0 0 40 0 40 -185 0 -185 0 0 35 0 35 -185 0 -185 0 0 -35z m220
-75 l0 -40 185 0 185 0 0 -35 0 -35 150 0 150 0 0 -35 0 -35 180 0 180 0 0
-40 0 -40 185 0 185 0 0 -35 c0 -34 1 -35 40 -35 39 0 40 -1 40 -35 0 -34 -1
-35 -40 -35 l-40 0 0 -115 0 -115 -185 0 -185 0 0 40 0 40 -110 0 -110 0 0 35
0 35 -70 0 -70 0 0 40 0 40 -40 0 -40 0 0 -40 0 -40 -185 0 -185 0 0 40 0 40
-145 0 -145 0 0 35 0 35 -75 0 -75 0 0 75 0 75 35 0 35 0 0 110 0 110 75 0 75
0 0 -40z m1770 -365 l0 -35 150 0 150 0 0 -40 0 -40 75 0 75 0 0 -110 0 -110
-40 0 c-39 0 -40 -1 -40 -35 0 -33 -2 -35 -35 -35 -34 0 -35 -1 -35 -40 l0
-40 -40 0 -40 0 0 40 c0 39 -1 40 -35 40 -33 0 -35 2 -35 35 0 33 -2 35 -35
35 -33 0 -35 -2 -35 -35 0 -34 -1 -35 -40 -35 -39 0 -40 1 -40 35 l0 35 -145
0 -145 0 0 110 0 110 35 0 35 0 0 75 0 75 110 0 110 0 0 -35z m670 -150 l0
-35 145 0 145 0 0 -40 0 -40 185 0 185 0 0 -35 0 -35 185 0 185 0 0 -35 0 -35
145 0 145 0 0 -40 0 -40 185 0 185 0 0 -35 0 -35 185 0 185 0 0 -40 0 -40 185
0 185 0 0 -35 0 -35 150 0 150 0 0 -35 0 -35 110 0 110 0 0 -40 0 -40 110 0
110 0 0 -35 0 -35 145 0 145 0 0 -35 0 -35 370 0 370 0 0 -40 0 -40 40 0 c39
0 40 -1 40 -35 0 -34 -1 -35 -40 -35 l-40 0 0 -110 0 -110 -75 0 -75 0 0 70 0
70 40 0 40 0 0 75 0 75 -75 0 -75 0 0 -145 0 -145 -35 0 c-33 0 -35 2 -35 35
l0 35 -150 0 -150 0 0 35 0 35 -145 0 -145 0 0 40 0 40 -185 0 -185 0 0 145 0
145 -40 0 -40 0 0 -110 0 -110 -110 0 -110 0 0 40 0 40 40 0 40 0 0 70 0 70
-40 0 -40 0 0 40 0 40 -145 0 -145 0 0 -75 0 -75 35 0 c33 0 35 2 35 35 l0 35
75 0 75 0 0 -110 0 -110 -110 0 -110 0 0 40 0 40 -75 0 -75 0 0 145 0 145 -35
0 -35 0 0 -145 0 -145 -40 0 c-39 0 -40 1 -40 35 l0 35 -110 0 -110 0 0 35 0
35 -185 0 -185 0 0 40 0 40 -185 0 -185 0 0 35 0 35 -185 0 -185 0 0 35 0 35
-145 0 -145 0 0 40 0 40 -220 0 -220 0 0 35 0 35 -75 0 -75 0 0 185 0 185 75
0 75 0 0 -35z m3460 -1255 l0 -40 75 0 75 0 0 -35 c0 -34 1 -35 40 -35 l40 0
0 75 0 75 35 0 35 0 0 -115 0 -115 -35 0 -35 0 0 -185 0 -185 -40 0 -40 0 0
-145 0 -145 -35 0 -35 0 0 -185 0 -185 -40 0 -40 0 0 185 0 185 40 0 40 0 0
185 0 185 -40 0 -40 0 0 75 0 75 -35 0 c-33 0 -35 2 -35 35 0 33 -2 35 -35 35
l-35 0 0 75 0 75 -40 0 c-39 0 -40 1 -40 35 0 33 -2 35 -35 35 -34 0 -35 1
-35 40 l0 40 145 0 145 0 0 -40z m670 -75 c0 -33 2 -35 35 -35 34 0 35 -1 35
-40 0 -39 -1 -40 -35 -40 l-35 0 0 -110 0 -110 -40 0 -40 0 0 -110 0 -110 -35
0 -35 0 0 -75 0 -75 35 0 35 0 0 -70 0 -70 -35 0 -35 0 0 -150 0 -150 -35 0
c-33 0 -35 -2 -35 -35 l0 -35 -75 0 -75 0 0 35 0 35 -75 0 -75 0 0 150 0 150
40 0 40 0 0 110 0 110 110 0 110 0 0 35 0 35 -75 0 -75 0 0 185 0 185 35 0 35
0 0 -110 0 -110 40 0 40 0 0 -40 c0 -39 1 -40 35 -40 l35 0 0 115 0 115 35 0
35 0 0 70 0 70 -35 0 c-34 0 -35 1 -35 40 0 39 -1 40 -35 40 -34 0 -35 -1 -35
-40 l0 -40 -40 0 -40 0 0 75 0 75 150 0 150 0 0 -35z m-4940 -370 c0 -33 2
-35 35 -35 34 0 35 -1 35 -40 0 -39 -1 -40 -35 -40 -34 0 -35 1 -35 40 l0 40
-40 0 c-39 0 -40 1 -40 35 0 34 1 35 40 35 39 0 40 -1 40 -35z m-80 -150 l0
-35 75 0 75 0 0 -35 c0 -33 2 -35 35 -35 34 0 35 -1 35 -40 l0 -40 -70 0 -70
0 0 40 0 40 -75 0 -75 0 0 70 0 70 35 0 c33 0 35 -2 35 -35z m-2180 -275 c0
-73 -3 -90 -15 -90 -12 0 -15 17 -15 90 0 73 3 90 15 90 12 0 15 -17 15 -90z
m2480 0 c0 -13 -7 -20 -20 -20 -13 0 -20 7 -20 20 0 13 7 20 20 20 13 0 20 -7
20 -20z m290 -70 c0 -19 -7 -20 -90 -20 -83 0 -90 1 -90 20 0 19 7 20 90 20
83 0 90 -1 90 -20z m370 -80 c0 -19 -7 -20 -130 -20 -123 0 -130 1 -130 20 0
19 7 20 130 20 123 0 130 -1 130 -20z m300 -70 c0 -19 -7 -20 -95 -20 -88 0
-95 1 -95 20 0 19 7 20 95 20 88 0 95 -1 95 -20z m-3510 -115 c0 -48 -2 -55
-20 -55 -18 0 -20 7 -20 55 0 48 2 55 20 55 18 0 20 -7 20 -55z m4240 -35 c0
-19 -7 -20 -125 -20 -118 0 -125 1 -125 20 0 19 7 20 125 20 118 0 125 -1 125
-20z m300 -70 c0 -19 -7 -20 -95 -20 -88 0 -95 1 -95 20 0 19 7 20 95 20 88 0
95 -1 95 -20z m2290 -20 l0 -40 110 0 110 0 0 -75 0 -75 -40 0 c-39 0 -40 -1
-40 -35 0 -33 -2 -35 -35 -35 l-35 0 0 75 0 75 -110 0 -110 0 0 75 0 75 75 0
75 0 0 -40z m-1550 -130 c0 -19 -7 -20 -130 -20 -123 0 -130 1 -130 20 0 19 7
20 130 20 123 0 130 -1 130 -20z m-5350 -115 c0 -48 -2 -55 -20 -55 -18 0 -20
7 -20 55 0 48 2 55 20 55 18 0 20 -7 20 -55z m6820 -15 l0 -70 -35 0 c-34 0
-35 -1 -35 -40 0 -39 1 -40 35 -40 33 0 35 -2 35 -35 0 -34 1 -35 40 -35 l40
0 0 75 0 75 70 0 70 0 0 -110 0 -110 -35 0 c-34 0 -35 -1 -35 -40 0 -39 -1
-40 -35 -40 -34 0 -35 1 -35 40 l0 40 -115 0 -115 0 0 110 0 110 40 0 40 0 0
70 0 70 35 0 35 0 0 -70z m-6900 -350 c0 -47 -3 -60 -15 -60 -12 0 -15 13 -15
60 0 47 3 60 15 60 12 0 15 -13 15 -60z m6830 -55 l0 -35 110 0 110 0 0 -75 0
-75 -35 0 -35 0 0 -150 0 -150 -40 0 c-39 0 -40 -1 -40 -35 0 -33 -2 -35 -35
-35 -33 0 -35 -2 -35 -35 l0 -35 -75 0 -75 0 0 -40 c0 -39 -1 -40 -35 -40
l-35 0 0 -75 0 -75 35 0 c33 0 35 -2 35 -35 0 -33 -2 -35 -35 -35 -33 0 -35
-2 -35 -35 0 -34 -1 -35 -40 -35 l-40 0 0 -40 0 -40 40 0 c39 0 40 -1 40 -35
l0 -35 -75 0 -75 0 0 75 0 75 35 0 35 0 0 145 0 145 40 0 40 0 0 75 0 75 70 0
70 0 0 35 0 35 -70 0 -70 0 0 75 0 75 35 0 35 0 0 185 0 185 75 0 75 0 0 -35z
m-2920 -130 c0 -12 15 -15 75 -15 68 0 75 -2 75 -20 0 -18 7 -20 75 -20 68 0
75 -2 75 -20 0 -13 7 -20 20 -20 11 0 20 -7 20 -15 0 -11 -11 -15 -40 -15 -33
0 -40 -3 -40 -20 0 -16 -7 -20 -35 -20 -34 0 -35 -1 -35 -40 l0 -40 -40 0
c-29 0 -40 -4 -40 -15 0 -10 -11 -15 -35 -15 -28 0 -35 -4 -35 -20 0 -13 -7
-20 -20 -20 -13 0 -20 -7 -20 -20 0 -11 -7 -20 -15 -20 -10 0 -15 -11 -15 -35
0 -34 -1 -35 -40 -35 -39 0 -40 -1 -40 -35 l0 -35 -55 0 -55 0 0 -40 c0 -29
-4 -40 -15 -40 -8 0 -15 -7 -15 -15 0 -8 -9 -15 -20 -15 -17 0 -20 -7 -20 -40
0 -33 -3 -40 -20 -40 -13 0 -20 -7 -20 -20 0 -18 -7 -20 -55 -20 l-55 0 0 -55
c0 -48 -2 -55 -20 -55 -11 0 -20 -7 -20 -15 0 -8 -7 -15 -15 -15 -8 0 -15 -9
-15 -20 0 -13 -7 -20 -20 -20 -13 0 -20 -7 -20 -20 0 -13 -7 -20 -20 -20 -11
0 -20 -7 -20 -15 0 -8 -7 -15 -15 -15 -12 0 -15 -13 -15 -55 l0 -55 -40 0 -40
0 0 -40 c0 -29 -4 -40 -15 -40 -10 0 -15 -11 -15 -35 0 -28 -4 -35 -20 -35
-13 0 -20 -7 -20 -20 0 -13 -7 -20 -20 -20 -13 0 -20 -7 -20 -20 0 -11 -7 -20
-15 -20 -12 0 -15 -13 -15 -55 0 -48 -2 -55 -20 -55 -11 0 -20 -7 -20 -15 0
-8 -9 -15 -20 -15 -17 0 -20 -7 -20 -40 0 -33 -3 -40 -20 -40 -16 0 -20 -7
-20 -35 0 -24 -5 -35 -15 -35 -11 0 -15 -11 -15 -40 0 -33 -3 -40 -20 -40 -16
0 -20 -7 -20 -35 0 -28 -4 -35 -20 -35 -13 0 -20 -7 -20 -20 0 -11 -7 -20 -15
-20 -12 0 -15 -13 -15 -55 0 -48 -2 -55 -20 -55 -18 0 -20 -7 -20 -55 0 -48
-2 -55 -20 -55 -16 0 -20 -7 -20 -35 0 -24 -5 -35 -15 -35 -12 0 -15 -13 -15
-55 0 -48 -2 -55 -20 -55 -18 0 -20 -7 -20 -75 0 -68 -2 -75 -20 -75 -18 0
-20 -7 -20 -55 0 -42 -3 -55 -15 -55 -8 0 -15 -9 -15 -20 0 -13 -7 -20 -20
-20 -18 0 -20 -7 -20 -75 0 -68 -2 -75 -20 -75 -11 0 -20 -7 -20 -15 0 -8 9
-15 20 -15 18 0 20 -7 20 -55 0 -48 -2 -55 -20 -55 -18 0 -20 -7 -20 -55 0
-42 -3 -55 -15 -55 -12 0 -15 -15 -15 -75 0 -68 -2 -75 -20 -75 -17 0 -20 -7
-20 -40 0 -33 3 -40 20 -40 16 0 20 -7 20 -35 0 -28 -4 -35 -20 -35 -18 0 -20
-7 -20 -55 0 -48 -2 -55 -20 -55 -13 0 -20 -7 -20 -20 0 -13 7 -20 20 -20 18
0 20 -7 20 -55 0 -48 -2 -55 -20 -55 -13 0 -20 -7 -20 -20 0 -13 7 -20 20 -20
16 0 20 -7 20 -35 0 -28 -4 -35 -20 -35 -18 0 -20 -7 -20 -55 0 -48 2 -55 20
-55 13 0 20 -7 20 -20 0 -13 -7 -20 -20 -20 -16 0 -20 -7 -20 -35 0 -28 4 -35
20 -35 13 0 20 -7 20 -20 0 -13 -7 -20 -20 -20 -16 0 -20 -7 -20 -35 0 -28 4
-35 20 -35 13 0 20 -7 20 -20 0 -13 -7 -20 -20 -20 -16 0 -20 -7 -20 -35 0
-28 4 -35 20 -35 19 0 20 -7 20 -130 0 -123 1 -130 20 -130 13 0 20 -7 20 -20
0 -13 -7 -20 -20 -20 -16 0 -20 -7 -20 -35 0 -28 4 -35 20 -35 18 0 20 -7 20
-55 0 -42 3 -55 15 -55 8 0 15 -9 15 -20 0 -11 -7 -20 -15 -20 -8 0 -15 -9
-15 -20 0 -11 7 -20 15 -20 12 0 15 -14 15 -70 0 -63 2 -70 20 -70 18 0 20 -7
20 -75 0 -68 2 -75 20 -75 18 0 20 -7 20 -55 0 -42 3 -55 15 -55 8 0 15 -9 15
-20 0 -11 -7 -20 -15 -20 -8 0 -15 -9 -15 -20 0 -11 7 -20 15 -20 8 0 15 -7
15 -15 0 -8 9 -15 20 -15 18 0 20 -7 20 -55 0 -48 2 -55 20 -55 18 0 20 -7 20
-60 0 -47 3 -60 15 -60 10 0 15 -11 15 -35 0 -28 4 -35 20 -35 18 0 20 -7 20
-55 0 -48 2 -55 20 -55 13 0 20 -7 20 -20 0 -18 -7 -20 -55 -20 -48 0 -55 2
-55 20 0 18 -7 20 -75 20 -68 0 -75 2 -75 20 0 16 -7 20 -35 20 -24 0 -35 5
-35 15 0 8 -9 15 -20 15 -13 0 -20 7 -20 20 0 13 -7 20 -20 20 -16 0 -20 7
-20 35 0 28 -4 35 -20 35 -13 0 -20 7 -20 20 0 11 -7 20 -15 20 -8 0 -15 9
-15 20 0 11 7 20 15 20 8 0 15 9 15 20 0 11 -7 20 -15 20 -8 0 -15 7 -15 15 0
8 -9 15 -20 15 -13 0 -20 7 -20 20 0 13 7 20 20 20 13 0 20 7 20 20 0 13 -7
20 -20 20 -11 0 -20 7 -20 15 0 8 -9 15 -20 15 -18 0 -20 7 -20 55 0 42 -3 55
-15 55 -8 0 -15 9 -15 20 0 11 7 20 15 20 8 0 15 9 15 20 0 11 -7 20 -15 20
-8 0 -15 7 -15 15 0 8 -9 15 -20 15 -13 0 -20 7 -20 20 0 13 7 20 20 20 13 0
20 7 20 20 0 13 -7 20 -20 20 -18 0 -20 7 -20 55 0 48 -2 55 -20 55 -18 0 -20
7 -20 75 0 60 -3 75 -15 75 -12 0 -15 19 -15 110 0 103 -1 110 -20 110 -13 0
-20 7 -20 20 0 13 7 20 20 20 11 0 20 7 20 15 0 8 -9 15 -20 15 -19 0 -20 7
-20 95 0 88 -1 95 -20 95 -11 0 -20 7 -20 15 0 8 9 15 20 15 17 0 20 7 20 40
0 33 -3 40 -20 40 -13 0 -20 7 -20 20 0 13 7 20 20 20 16 0 20 7 20 35 0 28
-4 35 -20 35 -13 0 -20 7 -20 20 0 13 7 20 20 20 16 0 20 7 20 35 0 28 -4 35
-20 35 -16 0 -20 7 -20 35 0 28 4 35 20 35 19 0 20 7 20 185 0 178 1 185 20
185 17 0 20 7 20 40 0 33 -3 40 -20 40 -16 0 -20 7 -20 35 0 28 4 35 20 35 18
0 20 7 20 75 0 60 3 75 15 75 13 0 15 21 15 130 0 123 1 130 20 130 18 0 20 7
20 70 0 63 2 70 20 70 18 0 20 7 20 60 0 47 3 60 15 60 12 0 15 14 15 70 0 63
2 70 20 70 18 0 20 7 20 55 0 48 2 55 20 55 17 0 20 7 20 40 0 29 4 40 15 40
12 0 15 13 15 55 0 48 2 55 20 55 18 0 20 7 20 75 0 68 2 75 20 75 11 0 20 7
20 15 0 8 9 15 20 15 18 0 20 7 20 55 0 42 3 55 15 55 8 0 15 9 15 20 0 13 7
20 20 20 18 0 20 7 20 75 l0 75 35 0 35 0 0 75 0 75 40 0 40 0 0 55 c0 42 3
55 15 55 10 0 15 11 15 35 0 34 1 35 40 35 l40 0 0 55 c0 42 3 55 15 55 8 0
15 9 15 20 0 13 7 20 20 20 13 0 20 7 20 20 0 13 7 20 20 20 16 0 20 7 20 35
0 24 5 35 15 35 10 0 15 11 15 35 0 34 1 35 40 35 33 0 40 3 40 20 0 13 7 20
20 20 16 0 20 7 20 35 0 24 5 35 15 35 8 0 15 9 15 20 0 13 7 20 20 20 17 0
20 7 20 40 0 39 1 40 35 40 24 0 35 5 35 15 0 8 9 15 20 15 17 0 20 7 20 40 0
33 3 40 20 40 11 0 20 7 20 15 0 8 7 15 15 15 8 0 15 9 15 20 0 17 7 20 40 20
33 0 40 3 40 20 0 11 7 20 15 20 8 0 15 7 15 15 0 8 9 15 20 15 13 0 20 7 20
20 0 13 7 20 20 20 16 0 20 7 20 35 0 33 2 35 35 35 28 0 35 4 35 20 0 13 7
20 20 20 13 0 20 7 20 20 0 16 7 20 35 20 28 0 35 4 35 20 0 13 7 20 20 20 11
0 20 7 20 15 0 8 9 15 20 15 13 0 20 7 20 20 0 16 7 20 35 20 28 0 35 4 35 20
0 13 7 20 20 20 11 0 20 7 20 15 0 8 7 15 15 15 8 0 15 -7 15 -15z m-3980
-110 c0 -48 -2 -55 -20 -55 -18 0 -20 7 -20 55 0 48 2 55 20 55 18 0 20 -7 20
-55z m-70 -370 c0 -48 -2 -55 -20 -55 -18 0 -20 7 -20 55 0 48 2 55 20 55 18
0 20 -7 20 -55z m1470 -145 c0 -17 7 -20 40 -20 33 0 40 3 40 20 0 11 7 20 15
20 8 0 15 -9 15 -20 0 -13 7 -20 20 -20 13 0 20 -7 20 -20 0 -16 7 -20 35 -20
28 0 35 -4 35 -20 0 -17 7 -20 40 -20 39 0 40 -1 40 -35 0 -24 5 -35 15 -35
10 0 15 -11 15 -35 0 -28 4 -35 20 -35 13 0 20 -7 20 -20 0 -13 -7 -20 -20
-20 -18 0 -20 -7 -20 -55 0 -42 -3 -55 -15 -55 -12 0 -15 -13 -15 -55 0 -48
-2 -55 -20 -55 -17 0 -20 -7 -20 -40 l0 -40 -55 0 c-42 0 -55 -3 -55 -15 0
-12 -15 -15 -75 -15 -60 0 -75 3 -75 15 0 12 -15 15 -75 15 l-75 0 0 40 c0 29
-4 40 -15 40 -8 0 -15 9 -15 20 0 13 -7 20 -20 20 -11 0 -20 7 -20 15 0 8 -9
15 -20 15 -13 0 -20 7 -20 20 0 13 7 20 20 20 13 0 20 7 20 20 0 13 -7 20 -20
20 -16 0 -20 7 -20 35 0 28 4 35 20 35 18 0 20 7 20 75 0 68 2 75 20 75 11 0
20 7 20 15 0 8 7 15 15 15 8 0 15 9 15 20 0 17 7 20 40 20 33 0 40 3 40 20 0
11 7 20 15 20 8 0 15 9 15 20 0 13 7 20 20 20 13 0 20 -7 20 -20z m-1550 -225
c0 -104 -2 -125 -15 -125 -13 0 -15 21 -15 125 0 104 2 125 15 125 13 0 15
-21 15 -125z m-70 -330 c0 -88 -1 -95 -20 -95 -19 0 -20 7 -20 95 0 88 1 95
20 95 19 0 20 -7 20 -95z m6160 35 c0 -13 -7 -20 -20 -20 -13 0 -20 7 -20 20
0 13 7 20 20 20 13 0 20 -7 20 -20z m-6240 -365 c0 -42 -3 -55 -15 -55 -12 0
-15 13 -15 55 0 42 3 55 15 55 12 0 15 -13 15 -55z m6170 -5 c0 -13 -7 -20
-20 -20 -13 0 -20 7 -20 20 0 13 7 20 20 20 13 0 20 -7 20 -20z m-6240 -365
c0 -48 -2 -55 -20 -55 -18 0 -20 7 -20 55 0 48 2 55 20 55 18 0 20 -7 20 -55z
m-70 -300 c0 -48 -2 -55 -20 -55 -18 0 -20 7 -20 55 0 48 2 55 20 55 18 0 20
-7 20 -55z m-80 -370 c0 -42 -3 -55 -15 -55 -12 0 -15 13 -15 55 0 42 3 55 15
55 12 0 15 -13 15 -55z m-70 -330 c0 -88 -1 -95 -20 -95 -19 0 -20 7 -20 95 0
88 1 95 20 95 19 0 20 -7 20 -95z m1400 -480 c0 -11 11 -15 40 -15 33 0 40 -3
40 -20 0 -16 7 -20 35 -20 28 0 35 -4 35 -20 0 -13 7 -20 20 -20 16 0 20 -7
20 -35 0 -24 5 -35 15 -35 12 0 15 -19 15 -110 0 -91 -3 -110 -15 -110 -12 0
-15 -13 -15 -55 l0 -55 -40 0 c-33 0 -40 -3 -40 -20 0 -16 -7 -20 -35 -20 -28
0 -35 -4 -35 -20 0 -18 -7 -20 -55 -20 -48 0 -55 -2 -55 -20 0 -13 -7 -20 -20
-20 -13 0 -20 7 -20 20 0 18 -7 20 -75 20 l-75 0 0 40 c0 29 -4 40 -15 40 -8
0 -15 7 -15 15 0 8 -9 15 -20 15 -13 0 -20 7 -20 20 0 13 -7 20 -20 20 -19 0
-20 7 -20 145 0 138 1 145 20 145 17 0 20 7 20 40 0 39 1 40 35 40 28 0 35 4
35 20 0 17 7 20 40 20 29 0 40 4 40 15 0 12 17 15 90 15 73 0 90 -3 90 -15z
m-1550 -260 c0 -88 -1 -95 -20 -95 -19 0 -20 7 -20 95 0 88 1 95 20 95 19 0
20 -7 20 -95z m-70 -295 c0 -13 -7 -20 -20 -20 -13 0 -20 7 -20 20 0 13 7 20
20 20 13 0 20 -7 20 -20z m6900 -165 l0 -35 70 0 70 0 0 -40 c0 -39 -1 -40
-35 -40 l-35 0 0 -185 0 -185 -35 0 -35 0 0 -145 0 -145 -40 0 -40 0 0 -185 0
-185 -35 0 -35 0 0 -185 0 -185 -35 0 -35 0 0 -150 0 -150 -40 0 -40 0 0 -185
0 -185 -35 0 -35 0 0 -185 0 -185 -40 0 -40 0 0 -180 0 -180 -70 0 -70 0 0
-40 c0 -39 1 -40 35 -40 33 0 35 -2 35 -35 0 -33 -2 -35 -35 -35 l-35 0 0
-185 0 -185 -40 0 c-39 0 -40 1 -40 35 l0 35 -110 0 -110 0 0 -110 0 -110 110
0 110 0 0 -75 0 -75 -70 0 -70 0 0 40 0 40 -115 0 -115 0 0 35 c0 34 1 35 40
35 l40 0 0 75 0 75 -75 0 -75 0 0 -110 0 -110 -35 0 c-33 0 -35 2 -35 35 l0
35 -225 0 -225 0 0 35 c0 34 1 35 40 35 l40 0 0 40 c0 39 1 40 35 40 34 0 35
-1 35 -40 0 -39 1 -40 35 -40 l35 0 0 75 0 75 -145 0 -145 0 0 -75 0 -75 -150
0 -150 0 0 40 0 40 -145 0 -145 0 0 35 0 35 -185 0 -185 0 0 75 0 75 35 0 35
0 0 110 0 110 115 0 115 0 0 40 0 40 -115 0 -115 0 0 35 c0 33 -2 35 -35 35
l-35 0 0 -110 0 -110 -35 0 -35 0 0 -110 0 -110 -150 0 -150 0 0 35 0 35 -185
0 -185 0 0 150 0 150 -70 0 -70 0 0 35 0 35 -75 0 -75 0 0 -35 c0 -34 -1 -35
-40 -35 l-40 0 0 -40 0 -40 40 0 c39 0 40 -1 40 -35 0 -33 2 -35 35 -35 33 0
35 2 35 35 0 34 1 35 40 35 39 0 40 -1 40 -35 0 -33 2 -35 35 -35 34 0 35 -1
35 -40 l0 -40 -110 0 -110 0 0 40 0 40 -75 0 -75 0 0 35 c0 33 -2 35 -35 35
-33 0 -35 -2 -35 -35 0 -34 -1 -35 -40 -35 -39 0 -40 1 -40 35 l0 35 -145 0
-145 0 0 40 c0 39 1 40 35 40 l35 0 0 145 0 145 35 0 c33 0 35 2 35 35 l0 35
-145 0 -145 0 0 40 0 40 -185 0 -185 0 0 35 0 35 -185 0 -185 0 0 40 0 40
-145 0 -145 0 0 35 0 35 -185 0 -185 0 0 35 c0 33 2 35 35 35 l35 0 0 150 0
150 150 0 c143 0 150 1 150 20 0 11 7 20 15 20 8 0 15 -9 15 -20 0 -11 -7 -20
-15 -20 -10 0 -15 -11 -15 -35 l0 -35 185 0 c158 0 185 2 185 15 0 8 7 15 15
15 8 0 15 -7 15 -15 0 -8 -7 -15 -15 -15 -11 0 -15 -11 -15 -40 l0 -40 145 0
145 0 0 -35 0 -35 185 0 c158 0 185 2 185 15 0 8 9 15 20 15 11 0 20 -7 20
-15 0 -8 -9 -15 -20 -15 -17 0 -20 -7 -20 -40 l0 -40 145 0 145 0 0 -35 0 -35
185 0 185 0 0 -35 0 -35 185 0 c158 0 185 2 185 15 0 12 13 15 55 15 42 0 55
-3 55 -15 0 -12 -13 -15 -55 -15 l-55 0 0 -40 0 -40 150 0 150 0 0 -35 0 -35
185 0 185 0 0 -40 0 -40 70 0 70 0 0 -145 0 -145 40 0 40 0 0 145 0 145 75 0
75 0 0 -35 0 -35 180 0 c173 0 180 1 180 20 0 13 7 20 20 20 13 0 20 -7 20
-20 0 -13 -7 -20 -20 -20 -16 0 -20 -7 -20 -35 l0 -35 150 0 150 0 0 -40 0
-40 220 0 220 0 0 -35 0 -35 150 0 150 0 0 75 0 75 35 0 35 0 0 -75 0 -75 -35
0 c-33 0 -35 -2 -35 -35 l0 -35 185 0 185 0 0 35 0 35 -110 0 -110 0 0 75 0
75 35 0 35 0 0 145 0 145 35 0 35 0 0 185 0 185 40 0 40 0 0 185 0 185 35 0
35 0 0 150 0 150 35 0 35 0 0 185 0 185 40 0 40 0 0 185 0 185 35 0 35 0 0
180 0 180 40 0 40 0 0 150 0 150 110 0 110 0 0 -35z m-7050 -540 c0 -48 -2
-55 -20 -55 -18 0 -20 7 -20 55 0 48 2 55 20 55 18 0 20 -7 20 -55z m-70 -370
c0 -48 -2 -55 -20 -55 -18 0 -20 7 -20 55 0 48 2 55 20 55 18 0 20 -7 20 -55z
m6160 5 c0 -13 -7 -20 -20 -20 -13 0 -20 7 -20 20 0 13 7 20 20 20 13 0 20 -7
20 -20z m-6240 -335 c0 -78 -3 -95 -15 -95 -12 0 -15 17 -15 95 0 78 3 95 15
95 12 0 15 -17 15 -95z m80 -255 c0 -18 -7 -20 -55 -20 l-55 0 0 -35 0 -35
180 0 c153 0 180 2 180 15 0 8 9 15 20 15 11 0 20 -7 20 -15 0 -8 -9 -15 -20
-15 -17 0 -20 -7 -20 -40 l0 -40 150 0 150 0 0 -35 0 -35 185 0 185 0 0 -40 0
-40 185 0 c178 0 185 1 185 20 0 11 7 20 15 20 8 0 15 -9 15 -20 0 -11 -7 -20
-15 -20 -13 0 -15 -23 -15 -145 l0 -145 -40 0 -40 0 0 -40 0 -40 -145 0 -145
0 0 -35 0 -35 145 0 145 0 0 -150 0 -150 -35 0 c-33 0 -35 -2 -35 -35 0 -33
-2 -35 -35 -35 -33 0 -35 2 -35 35 l0 35 -225 0 -225 0 0 40 c0 39 -1 40 -35
40 -33 0 -35 2 -35 35 0 33 -2 35 -35 35 -33 0 -35 -2 -35 -35 l0 -35 -75 0
-75 0 0 35 0 35 -150 0 -150 0 0 40 0 40 -185 0 -185 0 0 185 0 185 75 0 75 0
0 -40 0 -40 220 0 220 0 0 40 0 40 -145 0 -145 0 0 35 0 35 -110 0 -110 0 0
150 0 150 35 0 35 0 0 55 0 55 95 0 c88 0 95 -1 95 -20z m660 -150 c0 -13 -7
-20 -20 -20 -13 0 -20 7 -20 20 0 13 7 20 20 20 13 0 20 -7 20 -20z m370 -75
c0 -8 -9 -15 -20 -15 -11 0 -20 7 -20 15 0 8 9 15 20 15 11 0 20 -7 20 -15z
m1400 -295 c0 -13 -7 -20 -20 -20 -13 0 -20 7 -20 20 0 13 7 20 20 20 13 0 20
-7 20 -20z m670 -150 c0 -13 -7 -20 -20 -20 -13 0 -20 7 -20 20 0 13 7 20 20
20 13 0 20 -7 20 -20z m360 -70 c0 -11 -7 -20 -15 -20 -8 0 -15 9 -15 20 0 11
7 20 15 20 8 0 15 -9 15 -20z m-2020 -165 l0 -75 -40 0 -40 0 0 75 0 75 40 0
40 0 0 -75z m2690 15 c0 -13 -7 -20 -20 -20 -13 0 -20 7 -20 20 0 13 7 20 20
20 13 0 20 -7 20 -20z m370 -70 c0 -13 -7 -20 -20 -20 -13 0 -20 7 -20 20 0
13 7 20 20 20 13 0 20 -7 20 -20z m1210 0 c0 -11 -7 -20 -15 -20 -8 0 -15 9
-15 20 0 11 7 20 15 20 8 0 15 -9 15 -20z m-3830 -60 c0 -39 1 -40 35 -40 33
0 35 -2 35 -35 l0 -35 150 0 150 0 0 -35 0 -35 70 0 70 0 0 -75 0 -75 -35 0
c-33 0 -35 2 -35 35 l0 35 -220 0 -220 0 0 40 0 40 -75 0 -75 0 0 35 c0 33 2
35 35 35 l35 0 0 75 0 75 40 0 40 0 0 -40z m2990 -20 c0 -13 -7 -20 -20 -20
-13 0 -20 7 -20 20 0 13 7 20 20 20 13 0 20 -7 20 -20z m-3430 -55 l0 -35 -75
0 -75 0 0 35 0 35 75 0 75 0 0 -35z m4350 -50 c0 -48 -2 -55 -20 -55 -18 0
-20 7 -20 55 0 48 2 55 20 55 18 0 20 -7 20 -55z m-3030 -60 l0 -75 -35 0 -35
0 0 75 0 75 35 0 35 0 0 -75z m0 -180 c0 -33 -2 -35 -35 -35 -33 0 -35 2 -35
35 0 33 2 35 35 35 33 0 35 -2 35 -35z"/>
<path d="M4350 12405 l0 -75 110 0 110 0 0 -35 0 -35 75 0 75 0 0 35 c0 33 2
35 35 35 33 0 35 -2 35 -35 l0 -35 75 0 75 0 0 35 0 35 -75 0 -75 0 0 40 0 40
-110 0 -110 0 0 35 0 35 -110 0 -110 0 0 -75z"/>
<path d="M5020 12295 c0 -33 2 -35 35 -35 33 0 35 2 35 35 0 33 -2 35 -35 35
-33 0 -35 -2 -35 -35z"/>
<path d="M5160 12260 l0 -70 75 0 75 0 0 -40 0 -40 150 0 150 0 0 -35 c0 -33
2 -35 35 -35 l35 0 0 75 0 75 -110 0 -110 0 0 35 0 35 -75 0 -75 0 0 35 0 35
-75 0 -75 0 0 -70z"/>
<path d="M5980 12075 l0 -35 70 0 70 0 0 -75 0 -75 40 0 40 0 0 75 0 75 35 0
35 0 0 -75 0 -75 75 0 75 0 0 75 0 75 -75 0 -75 0 0 35 0 35 -145 0 -145 0 0
-35z"/>
<path d="M9220 11265 c0 -34 1 -35 40 -35 39 0 40 1 40 35 0 34 -1 35 -40 35
-39 0 -40 -1 -40 -35z"/>
<path d="M10620 11075 l0 -75 40 0 40 0 0 75 0 75 -40 0 -40 0 0 -75z"/>
<path d="M10180 10670 c0 -39 1 -40 35 -40 33 0 35 -2 35 -35 l0 -35 75 0 75
0 0 75 0 75 -110 0 -110 0 0 -40z"/>
<path d="M10330 10450 c0 -39 1 -40 35 -40 34 0 35 1 35 40 0 39 -1 40 -35 40
-34 0 -35 -1 -35 -40z"/>
<path d="M10550 9930 l0 -110 -35 0 c-33 0 -35 -2 -35 -35 0 -33 2 -35 35 -35
34 0 35 -1 35 -40 0 -39 1 -40 35 -40 l35 0 0 115 0 115 40 0 40 0 0 70 0 70
-75 0 -75 0 0 -110z"/>
<path d="M10250 8565 l0 -145 75 0 75 0 0 110 0 110 40 0 c39 0 40 1 40 35 l0
35 -115 0 -115 0 0 -145z"/>
<path d="M3840 2545 c0 -33 2 -35 35 -35 33 0 35 2 35 35 0 33 -2 35 -35 35
-33 0 -35 -2 -35 -35z"/>
<path d="M4350 2435 l0 -75 75 0 75 0 0 -35 0 -35 145 0 145 0 0 70 0 70 -70
0 -70 0 0 -35 c0 -34 -1 -35 -40 -35 l-40 0 0 75 0 75 -110 0 -110 0 0 -75z"/>
<path d="M5310 2325 c0 -33 -2 -35 -35 -35 l-35 0 0 -75 0 -75 70 0 70 0 0
110 0 110 -35 0 c-33 0 -35 -2 -35 -35z"/>
<path d="M5750 2100 l0 -110 -110 0 -110 0 0 35 c0 33 -2 35 -35 35 l-35 0 0
-70 0 -70 145 0 145 0 0 -40 0 -40 185 0 185 0 0 -35 0 -35 150 0 150 0 0 -35
0 -35 185 0 185 0 0 35 0 35 -185 0 -185 0 0 35 0 35 -150 0 -150 0 0 75 0 75
40 0 c39 0 40 -1 40 -35 l0 -35 145 0 145 0 0 -40 0 -40 40 0 40 0 0 40 c0 39
1 40 35 40 33 0 35 2 35 35 l0 35 -110 0 -110 0 0 35 0 35 -75 0 -75 0 0 40 0
40 -145 0 -145 0 0 -40 0 -40 -40 0 -40 0 0 75 0 75 -75 0 -75 0 0 -110z m300
-145 l0 -35 -150 0 -150 0 0 35 0 35 150 0 150 0 0 -35z"/>
<path d="M7080 1880 l0 -40 40 0 40 0 0 40 0 40 -40 0 -40 0 0 -40z"/>
<path d="M5380 1805 c0 -34 1 -35 40 -35 39 0 40 1 40 35 0 34 -1 35 -40 35
-39 0 -40 -1 -40 -35z"/>
<path d="M5530 1770 l0 -70 40 0 c39 0 40 1 40 35 0 33 2 35 35 35 33 0 35 2
35 35 l0 35 -75 0 -75 0 0 -70z"/>
<path d="M7520 1770 l0 -70 40 0 40 0 0 -40 0 -40 110 0 110 0 0 -35 0 -35
-150 0 -150 0 0 35 0 35 -180 0 -180 0 0 -35 0 -35 180 0 180 0 0 -40 0 -40
150 0 150 0 0 -35 0 -35 185 0 185 0 0 -35 0 -35 145 0 145 0 0 -40 0 -40 40
0 40 0 0 40 c0 39 1 40 35 40 l35 0 0 145 0 145 -35 0 c-33 0 -35 -2 -35 -35
0 -34 -1 -35 -40 -35 l-40 0 0 -75 0 -75 -110 0 -110 0 0 35 0 35 -220 0 -220
0 0 40 0 40 145 0 145 0 0 75 0 75 -145 0 -145 0 0 35 0 35 -75 0 -75 0 0 35
0 35 -75 0 -75 0 0 -70z"/>
<path d="M6200 1585 l0 -115 220 0 220 0 0 40 0 40 -110 0 -110 0 0 35 0 35
-75 0 -75 0 0 40 c0 39 -1 40 -35 40 l-35 0 0 -115z"/>
<path d="M8780 1510 c0 -39 -1 -40 -35 -40 -33 0 -35 -2 -35 -35 0 -33 2 -35
35 -35 33 0 35 -2 35 -35 0 -33 2 -35 35 -35 l35 0 0 110 0 110 -35 0 c-34 0
-35 -1 -35 -40z"/>
<path d="M7010 1435 l0 -35 110 0 110 0 0 35 0 35 -110 0 -110 0 0 -35z"/>
<path d="M7300 1360 l0 -110 40 0 40 0 0 40 0 40 70 0 70 0 0 -75 0 -75 115 0
115 0 0 35 c0 33 2 35 35 35 34 0 35 1 35 40 0 39 -1 40 -35 40 -33 0 -35 2
-35 35 l0 35 -150 0 -150 0 0 35 0 35 -75 0 -75 0 0 -110z"/>
<path d="M8260 1215 c0 -34 1 -35 40 -35 39 0 40 1 40 35 0 34 -1 35 -40 35
-39 0 -40 -1 -40 -35z"/>
<path d="M2290 2915 c0 -33 2 -35 35 -35 33 0 35 2 35 35 0 33 -2 35 -35 35
-33 0 -35 -2 -35 -35z"/>
<path d="M2510 2915 c0 -34 -1 -35 -40 -35 l-40 0 0 -75 0 -75 75 0 75 0 0 75
0 75 35 0 35 0 0 -75 0 -75 40 0 c39 0 40 -1 40 -35 l0 -35 75 0 75 0 0 35 c0
33 2 35 35 35 33 0 35 -2 35 -35 0 -33 2 -35 35 -35 34 0 35 -1 35 -40 l0 -40
40 0 40 0 0 75 0 75 -40 0 c-39 0 -40 1 -40 35 l0 35 -145 0 -145 0 0 40 0 40
-40 0 c-39 0 -40 1 -40 35 l0 35 -70 0 -70 0 0 -35z"/>
<path d="M3170 2690 l0 -110 110 0 110 0 0 75 0 75 -70 0 -70 0 0 35 c0 34 -1
35 -40 35 l-40 0 0 -110z"/>
<path d="M2650 2545 c0 -33 -2 -35 -35 -35 -34 0 -35 -1 -35 -40 0 -39 -1 -40
-35 -40 -33 0 -35 -2 -35 -35 l0 -35 70 0 70 0 0 -35 c0 -34 1 -35 40 -35 l40
0 0 -40 c0 -39 1 -40 35 -40 l35 0 0 75 0 75 -75 0 -75 0 0 75 0 75 150 0 150
0 0 35 0 35 -150 0 -150 0 0 -35z"/>
<path d="M2210 2470 l0 -40 75 0 75 0 0 40 0 40 -75 0 -75 0 0 -40z"/>
<path d="M3020 2470 l0 -40 150 0 150 0 0 40 0 40 -150 0 -150 0 0 -40z"/>
<path d="M2880 2360 l0 -70 70 0 70 0 0 -75 0 -75 40 0 c39 0 40 1 40 35 0 33
2 35 35 35 34 0 35 1 35 40 l0 40 -75 0 -75 0 0 35 c0 33 -2 35 -35 35 -33 0
-35 2 -35 35 0 33 -2 35 -35 35 l-35 0 0 -70z"/>
<path d="M3320 2250 l0 -40 75 0 75 0 0 40 0 40 -75 0 -75 0 0 -40z"/>
<path d="M4200 11815 l0 -145 -35 0 -35 0 0 -110 0 -110 35 0 c34 0 35 -1 35
-40 l0 -40 185 0 185 0 0 -35 0 -35 75 0 75 0 0 75 0 75 -35 0 c-34 0 -35 -1
-35 -40 l0 -40 -40 0 -40 0 0 40 0 40 -145 0 -145 0 0 35 c0 34 -1 35 -40 35
l-40 0 0 75 0 75 40 0 40 0 0 145 0 145 -40 0 -40 0 0 -145z"/>
<path d="M4430 11925 l0 -35 70 0 70 0 0 35 0 35 -70 0 -70 0 0 -35z"/>
<path d="M4720 11855 c0 -33 2 -35 35 -35 33 0 35 2 35 35 0 33 -2 35 -35 35
-33 0 -35 -2 -35 -35z"/>
<path d="M4570 11780 c0 -39 -1 -40 -35 -40 -33 0 -35 -2 -35 -35 l0 -35 -75
0 -75 0 0 -75 0 -75 75 0 75 0 0 35 c0 33 2 35 35 35 34 0 35 1 35 40 l0 40
75 0 75 0 0 35 c0 33 -2 35 -35 35 -34 0 -35 1 -35 40 l0 40 -40 0 -40 0 0
-40z"/>
<path d="M4940 11705 l0 -115 40 0 c39 0 40 -1 40 -35 0 -33 2 -35 35 -35 l35
0 0 -75 0 -75 35 0 35 0 0 110 0 110 40 0 40 0 0 75 0 75 -40 0 -40 0 0 -75 0
-75 -35 0 c-34 0 -35 1 -35 40 0 39 -1 40 -35 40 l-35 0 0 75 0 75 -40 0 -40
0 0 -115z"/>
<path d="M4720 11555 c0 -33 2 -35 35 -35 33 0 35 2 35 35 0 33 -2 35 -35 35
-33 0 -35 -2 -35 -35z"/>
<path d="M5310 11555 c0 -33 -2 -35 -35 -35 l-35 0 0 -110 0 -110 35 0 c33 0
35 -2 35 -35 0 -33 2 -35 35 -35 33 0 35 2 35 35 l0 35 75 0 75 0 0 -35 c0
-34 1 -35 40 -35 l40 0 0 70 0 70 35 0 35 0 0 -70 0 -70 35 0 c34 0 35 -1 35
-40 l0 -40 40 0 40 0 0 75 0 75 -40 0 c-39 0 -40 1 -40 35 l0 35 75 0 75 0 0
-110 0 -110 75 0 75 0 0 75 0 75 35 0 35 0 0 75 0 75 -70 0 -70 0 0 -40 0 -40
-40 0 -40 0 0 40 c0 39 -1 40 -35 40 -33 0 -35 2 -35 35 0 34 -1 35 -40 35
-39 0 -40 -1 -40 -35 0 -33 -2 -35 -35 -35 l-35 0 0 70 0 70 -75 0 -75 0 0
-35 c0 -33 -2 -35 -35 -35 -33 0 -35 2 -35 35 l0 35 -75 0 -75 0 0 -35z m70
-110 l0 -75 -35 0 -35 0 0 75 0 75 35 0 35 0 0 -75z"/>
<path d="M4870 11445 l0 -75 75 0 75 0 0 40 0 40 -40 0 c-39 0 -40 1 -40 35 0
33 -2 35 -35 35 l-35 0 0 -75z"/>
<path d="M4790 11115 l0 -115 40 0 40 0 0 40 0 40 75 0 75 0 0 75 0 75 -115 0
-115 0 0 -115z"/>
<path d="M5090 11075 l0 -75 -35 0 c-33 0 -35 -2 -35 -35 0 -33 2 -35 35 -35
33 0 35 2 35 35 0 33 2 35 35 35 33 0 35 -2 35 -35 0 -34 1 -35 40 -35 l40 0
0 110 0 110 -75 0 -75 0 0 -75z"/>
<path d="M5310 11040 l0 -110 110 0 110 0 0 35 c0 34 1 35 40 35 l40 0 0 -70
0 -70 110 0 110 0 0 70 0 70 -75 0 -75 0 0 40 0 40 -75 0 -75 0 0 -40 0 -40
-75 0 -75 0 0 75 0 75 -35 0 -35 0 0 -110z"/>
<path d="M8110 10895 l0 -35 -70 0 -70 0 0 -75 0 -75 35 0 c34 0 35 -1 35 -40
l0 -40 75 0 75 0 0 -35 0 -35 75 0 75 0 0 -35 0 -35 -150 0 -150 0 0 35 0 35
-110 0 -110 0 0 -35 0 -35 75 0 75 0 0 -40 0 -40 185 0 185 0 0 -35 c0 -33 2
-35 35 -35 33 0 35 2 35 35 0 33 2 35 35 35 l35 0 0 185 0 185 40 0 40 0 0 40
0 40 75 0 75 0 0 -40 0 -40 145 0 145 0 0 40 0 40 -75 0 -75 0 0 35 0 35 -220
0 -220 0 0 -185 0 -185 -35 0 c-33 0 -35 2 -35 35 0 34 -1 35 -40 35 l-40 0 0
115 0 115 -35 0 c-33 0 -35 2 -35 35 0 34 -1 35 -40 35 -39 0 -40 -1 -40 -35z
m80 -150 c0 -34 -1 -35 -40 -35 -39 0 -40 1 -40 35 0 34 1 35 40 35 39 0 40
-1 40 -35z"/>
<path d="M8560 10560 l0 -150 145 0 145 0 0 75 0 75 40 0 40 0 0 75 0 75 -40
0 -40 0 0 -40 c0 -39 -1 -40 -35 -40 -33 0 -35 -2 -35 -35 0 -33 -2 -35 -35
-35 -33 0 -35 -2 -35 -35 0 -34 -1 -35 -40 -35 l-40 0 0 110 0 110 -35 0 -35
0 0 -150z"/>
<path d="M9520 10560 l0 -150 -40 0 -40 0 0 -75 0 -75 -185 0 -185 0 0 40 0
40 115 0 115 0 0 35 c0 33 2 35 35 35 34 0 35 1 35 40 0 39 1 40 35 40 33 0
35 2 35 35 0 33 -2 35 -35 35 -33 0 -35 2 -35 35 l0 35 -75 0 -75 0 0 -35 0
-35 75 0 75 0 0 -35 c0 -33 -2 -35 -35 -35 -34 0 -35 -1 -35 -40 l0 -40 -75 0
-75 0 0 40 0 40 -40 0 -40 0 0 -75 0 -75 -70 0 -70 0 0 -75 0 -75 220 0 220 0
0 -35 0 -35 75 0 75 0 0 110 0 110 35 0 35 0 0 145 0 145 35 0 c34 0 35 1 35
40 l0 40 -70 0 -70 0 0 -150z"/>
<path d="M4720 10520 l0 -110 75 0 75 0 0 -35 0 -35 145 0 145 0 0 -40 0 -40
40 0 40 0 0 40 c0 39 1 40 35 40 34 0 35 -1 35 -40 l0 -40 75 0 75 0 0 75 0
75 -75 0 -75 0 0 40 0 40 -75 0 -75 0 0 35 0 35 -70 0 -70 0 0 -35 0 -35 -75
0 -75 0 0 70 0 70 -75 0 -75 0 0 -110z"/>
<path d="M9890 10450 l0 -40 70 0 70 0 0 40 0 40 -70 0 -70 0 0 -40z"/>
<path d="M5530 10335 l0 -75 40 0 c39 0 40 -1 40 -35 0 -33 2 -35 35 -35 l35
0 0 110 0 110 -75 0 -75 0 0 -75z"/>
<path d="M6270 10190 l0 -70 150 0 150 0 0 -40 0 -40 145 0 145 0 0 40 0 40
-145 0 -145 0 0 35 c0 34 -1 35 -40 35 -39 0 -40 1 -40 35 l0 35 -110 0 -110
0 0 -70z"/>
<path d="M7160 10080 l0 -40 -115 0 -115 0 0 -35 0 -35 150 0 150 0 0 75 0 75
-35 0 c-34 0 -35 -1 -35 -40z"/>
<path d="M7300 10005 l0 -35 75 0 75 0 0 -35 c0 -33 2 -35 35 -35 34 0 35 -1
35 -40 l0 -40 75 0 75 0 0 40 c0 39 -1 40 -35 40 -33 0 -35 2 -35 35 l0 35
-75 0 -75 0 0 35 0 35 -75 0 -75 0 0 -35z"/>
<path d="M7750 9860 l0 -40 70 0 70 0 0 40 0 40 -70 0 -70 0 0 -40z"/>
<path d="M8110 9860 l0 -40 -70 0 -70 0 0 -35 0 -35 110 0 110 0 0 -40 c0 -39
1 -40 35 -40 l35 0 0 75 0 75 -35 0 c-34 0 -35 1 -35 40 l0 40 -40 0 -40 0 0
-40z"/>
<path d="M8410 9785 c0 -33 2 -35 35 -35 33 0 35 2 35 35 0 33 -2 35 -35 35
-33 0 -35 -2 -35 -35z"/>
<path d="M9810 9785 c0 -34 1 -35 40 -35 39 0 40 1 40 35 0 34 -1 35 -40 35
-39 0 -40 -1 -40 -35z"/>
<path d="M8560 9675 l0 -75 75 0 75 0 0 75 0 75 -75 0 -75 0 0 -75z"/>
<path d="M8410 9635 c0 -33 2 -35 35 -35 33 0 35 2 35 35 0 33 -2 35 -35 35
-33 0 -35 -2 -35 -35z"/>
<path d="M8780 9600 l0 -70 75 0 75 0 0 35 c0 33 2 35 35 35 33 0 35 -2 35
-35 l0 -35 75 0 75 0 0 70 0 70 -40 0 c-39 0 -40 -1 -40 -35 0 -33 -2 -35 -35
-35 -33 0 -35 2 -35 35 l0 35 -110 0 -110 0 0 -70z"/>
<path d="M9740 9635 c0 -33 2 -35 35 -35 33 0 35 2 35 35 0 33 -2 35 -35 35
-33 0 -35 -2 -35 -35z"/>
<path d="M9960 9635 c0 -33 -2 -35 -35 -35 -33 0 -35 -2 -35 -35 l0 -35 110 0
110 0 0 -75 0 -75 -40 0 c-39 0 -40 1 -40 35 l0 35 -110 0 -110 0 0 40 c0 39
-1 40 -35 40 l-35 0 0 -75 0 -75 110 0 110 0 0 -40 0 -40 110 0 110 0 0 115 0
115 -35 0 -35 0 0 70 0 70 -75 0 -75 0 0 -35z"/>
<path d="M9960 8715 l0 -75 35 0 35 0 0 75 0 75 -35 0 -35 0 0 -75z"/>
<path d="M9890 8345 l0 -75 35 0 35 0 0 75 0 75 -35 0 -35 0 0 -75z"/>
<path d="M9810 8045 l0 -75 40 0 40 0 0 75 0 75 -40 0 -40 0 0 -75z"/>
<path d="M9740 7680 l0 -70 35 0 35 0 0 70 0 70 -35 0 -35 0 0 -70z"/>
<path d="M9660 7310 l0 -70 40 0 40 0 0 70 0 70 -40 0 -40 0 0 -70z"/>
<path d="M9590 7015 l0 -75 35 0 35 0 0 75 0 75 -35 0 -35 0 0 -75z"/>
<path d="M9520 6645 l0 -75 35 0 35 0 0 75 0 75 -35 0 -35 0 0 -75z"/>
<path d="M9440 6275 l0 -75 40 0 40 0 0 75 0 75 -40 0 -40 0 0 -75z"/>
<path d="M9810 6315 c0 -34 1 -35 40 -35 39 0 40 1 40 35 0 34 -1 35 -40 35
-39 0 -40 -1 -40 -35z"/>
<path d="M9370 5940 l0 -110 35 0 35 0 0 110 0 110 -35 0 -35 0 0 -110z"/>
<path d="M9300 5535 l0 -145 -40 0 -40 0 0 -185 0 -185 -35 0 -35 0 0 -110 0
-110 35 0 35 0 0 110 0 110 40 0 40 0 0 185 0 185 35 0 35 0 0 145 0 145 -35
0 -35 0 0 -145z"/>
<path d="M9520 5430 l0 -110 -40 0 -40 0 0 -225 0 -225 -35 0 c-33 0 -35 -2
-35 -35 l0 -35 75 0 75 0 0 35 c0 33 2 35 35 35 l35 0 0 75 0 75 35 0 35 0 0
75 0 75 -35 0 c-33 0 -35 2 -35 35 0 33 2 35 35 35 34 0 35 1 35 40 l0 40 40
0 40 0 0 70 0 70 -40 0 -40 0 0 40 0 40 -70 0 -70 0 0 -110z"/>
<path d="M9070 4505 l0 -75 40 0 40 0 0 75 0 75 -40 0 -40 0 0 -75z"/>
<path d="M9000 4205 l0 -75 35 0 35 0 0 75 0 75 -35 0 -35 0 0 -75z"/>
<path d="M8930 3835 l0 -75 35 0 35 0 0 75 0 75 -35 0 -35 0 0 -75z"/>
<path d="M8850 3465 l0 -75 40 0 40 0 0 75 0 75 -40 0 -40 0 0 -75z"/>
<path d="M8630 2470 l0 -110 40 0 40 0 0 110 0 110 -40 0 -40 0 0 -110z"/>
<path d="M8340 2135 l0 -75 70 0 70 0 0 75 0 75 -70 0 -70 0 0 -75z"/>
<path d="M11950 11265 c0 -34 1 -35 40 -35 39 0 40 1 40 35 0 34 -1 35 -40 35
-39 0 -40 -1 -40 -35z"/>
<path d="M11800 10820 l0 -40 40 0 40 0 0 40 0 40 -40 0 -40 0 0 -40z"/>
<path d="M11070 7275 c0 -33 2 -35 35 -35 33 0 35 2 35 35 0 33 -2 35 -35 35
-33 0 -35 -2 -35 -35z"/>
<path d="M2800 1435 l0 -35 75 0 75 0 0 35 0 35 -75 0 -75 0 0 -35z"/>
<path d="M3250 1365 l0 -35 70 0 70 0 0 35 0 35 -70 0 -70 0 0 -35z"/>
<path d="M3470 1290 l0 -40 70 0 70 0 0 40 0 40 -70 0 -70 0 0 -40z"/>
<path d="M7750 405 l0 -35 70 0 70 0 0 35 0 35 -70 0 -70 0 0 -35z"/>
<path d="M7970 330 l0 -40 70 0 70 0 0 40 0 40 -70 0 -70 0 0 -40z"/>
</g>
</svg>
